<?xml version="1.0" encoding="UTF-8"?>
<svg version="1.1" xmlns="http://www.w3.org/2000/svg" width="525" height="475">
<path d="M0 0 C11.11924097 8.38191691 19.87255187 19.04644683 25 32 C25.80179687 31.84144531 26.60359375 31.68289062 27.4296875 31.51953125 C43.30524219 29.20941224 57.07675555 31.03193767 70.53125 40.15625 C80.32523702 47.47074664 86.44869846 57.01247915 89 69 C89.34315254 72.84655445 89.33320178 76.64151731 89.25 80.5 C89.24484375 81.48742187 89.2396875 82.47484375 89.234375 83.4921875 C89.15550595 90.6889881 89.15550595 90.6889881 88 93 C88.63164062 92.94199219 89.26328125 92.88398437 89.9140625 92.82421875 C100.50699117 92.28999324 110.52735938 95.59104341 119 102 C119 102.66 119 103.32 119 104 C119.61875 104.309375 120.2375 104.61875 120.875 104.9375 C122.25 105.625 123.625 106.3125 125 107 C125 107.66 125 108.32 125 109 C125.66 109 126.32 109 127 109 C128.83984375 111.4921875 128.83984375 111.4921875 130.9375 114.875 C131.62714844 115.96554688 132.31679688 117.05609375 133.02734375 118.1796875 C137.46271657 126.18289955 138.46903655 134.09597194 138.3125 143.125 C138.31733398 144.53072266 138.31733398 144.53072266 138.32226562 145.96484375 C138.27862721 151.63783814 137.60692072 156.55823659 136 162 C136.66386719 162.25394531 137.32773437 162.50789062 138.01171875 162.76953125 C147.60056657 166.50708215 147.60056657 166.50708215 151 169 C151 169.66 151 170.32 151 171 C151.639375 171.268125 152.27875 171.53625 152.9375 171.8125 C155 173 155 173 156 176 C156.66 176 157.32 176 158 176 C165.04295164 189.40797211 169.508569 200.17403965 164.97265625 215.30078125 C160.32421083 228.200684 152.12498111 235.94551802 140 242 C137.34827638 243.14515477 134.74850971 244.10144875 132 245 C131.96261719 246.03898437 131.92523438 247.07796875 131.88671875 248.1484375 C131.21821958 263.52022508 127.82071202 277.58055497 115.94140625 288.4765625 C106.10523986 296.19508341 96.55990844 299.54945702 84.125 299.375 C83.15409424 299.3735498 82.18318848 299.37209961 81.18286133 299.37060547 C76.00715265 299.2949334 71.60663665 298.8833297 66.6875 297.125 C63.17199313 295.92680373 63.17199313 295.92680373 59.703125 296.9609375 C57.41050689 298.47724192 57.41050689 298.47724192 55.25390625 300.234375 C52.89234905 302.08432969 50.55455199 303.40820323 47.875 304.75 C47.10929687 305.13671875 46.34359375 305.5234375 45.5546875 305.921875 C38.35002172 308.96237615 32.02065326 309.36533501 24.25 309.375 C23.2290625 309.39949219 22.208125 309.42398437 21.15625 309.44921875 C12.35100248 309.48274127 5.26730245 307.32761952 -2.4375 303.125 C-4.87731881 301.69648538 -4.87731881 301.69648538 -6.91796875 302.73046875 C-9.0956455 304.05832043 -10.93242606 305.53593422 -12.875 307.1875 C-18.76599181 311.81544774 -25.170316 315.02031065 -32 318 C-33.48113281 318.65742187 -33.48113281 318.65742187 -34.9921875 319.328125 C-49.75957909 324.66392552 -71.04304658 324.71731347 -85.85546875 319.48828125 C-90.60163664 317.24195831 -95.19310101 314.73485723 -99.67504883 311.99829102 C-103.16142268 309.88066462 -104.8146002 309 -109 309 C-110.82808488 309.99334226 -110.82808488 309.99334226 -112.5 311.375 C-120.19733238 317.35792653 -129.3859412 318.97203754 -139 318 C-150.09467717 315.60519616 -159.50850404 309.51991348 -165.9375 300.1875 C-167 298 -167 298 -167 296 C-168.093125 296.721875 -169.18625 297.44375 -170.3125 298.1875 C-190.43915709 309.12590059 -215.32965927 308.43566882 -236.77734375 302.19140625 C-247.78307385 298.37586038 -258.06413866 289.24926286 -263.60546875 279.04296875 C-266.24997428 273.15394384 -267.61936464 268.44139225 -267 262 C-267.49242187 262.15984375 -267.98484375 262.3196875 -268.4921875 262.484375 C-280.41089483 264.93495034 -292.92706465 263.45011166 -303.1875 256.9375 C-310.44983445 251.55079209 -315.73400909 244.0053415 -317.609375 235.109375 C-318.79691134 225.65658577 -318.45318752 216.92073442 -315 208 C-316.7015625 207.6596875 -316.7015625 207.6596875 -318.4375 207.3125 C-329.98247594 204.35016874 -339.37367775 196.33223123 -345.9375 186.5625 C-352.37065202 175.57758948 -354.14172334 163.37429253 -351.12109375 150.953125 C-348.32862003 141.14597677 -344.01227871 133.83421825 -335.6875 127.9375 C-332.23855345 125.10420034 -331.4788563 122.71916549 -330.94189453 118.31103516 C-330.75022252 116.18996245 -330.57501262 114.06800812 -330.40234375 111.9453125 C-329.44465447 102.55437876 -325.09246043 95.98472008 -319 89 C-318.2575 88.13375 -317.515 87.2675 -316.75 86.375 C-305.26100067 76.4526824 -295.95997233 73.43269768 -281 74 C-281.061875 72.7625 -281.12375 71.525 -281.1875 70.25 C-281.09691382 58.6549685 -276.92973183 49.12193999 -270 40 C-269.34 40 -268.68 40 -268 40 C-267.72929687 39.39929687 -267.45859375 38.79859375 -267.1796875 38.1796875 C-263.02537595 30.50384033 -253.08091164 25.96427255 -245.12939453 23.39575195 C-240.30837271 22.06970515 -235.73764491 21.65055021 -230.75 21.6875 C-230.0185376 21.68878906 -229.2870752 21.69007812 -228.53344727 21.69140625 C-222.08273908 21.80426719 -216.14238804 23.01171254 -210 25 C-209.68546875 24.20335937 -209.3709375 23.40671875 -209.046875 22.5859375 C-204.51337708 11.36143362 -204.51337708 11.36143362 -201 7 C-200.34 7 -199.68 7 -199 7 C-198.814375 6.443125 -198.62875 5.88625 -198.4375 5.3125 C-194.64707508 -0.78514009 -186.77994774 -4.35130009 -180 -6 C-166.67221649 -7.33954372 -157.03637757 -4.49352195 -146 3 C-143.32357511 5.18490007 -143.32357511 5.18490007 -141 5 C-141 4.34 -141 3.68 -141 3 C-131.84546249 -6.17765503 -119.90531011 -10.11613182 -107.1875 -10.1875 C-94.29244867 -10.06546481 -85.64582889 -5.90846343 -75 1 C-74.319375 0.54109375 -73.63875 0.0821875 -72.9375 -0.390625 C-50.63337113 -14.50866402 -22.13158213 -14.53537764 0 0 Z M-131 6 C-131 6.66 -131 7.32 -131 8 C-132.32 8.66 -133.64 9.32 -135 10 C-135 10.66 -135 11.32 -135 12 C-135.66 12 -136.32 12 -137 12 C-137.5775 12.825 -138.155 13.65 -138.75 14.5 C-141 17 -141 17 -144.25 17.3125 C-145.1575 17.209375 -146.065 17.10625 -147 17 C-147.25523437 16.41347656 -147.51046875 15.82695313 -147.7734375 15.22265625 C-150.80043156 9.73743452 -156.65267816 5.32642058 -162.6015625 3.43359375 C-171.10443825 1.89642892 -179.19791636 2.25499985 -187 6 C-187 6.66 -187 7.32 -187 8 C-187.89525391 8.39445312 -187.89525391 8.39445312 -188.80859375 8.796875 C-194.07596119 11.68876301 -197.95640501 17.48229354 -200 23 C-200.61953239 26.4156886 -201.12681778 29.8266117 -201.5703125 33.26953125 C-202 36 -202 36 -203 37 C-207.24834175 37.45928019 -208.70184756 36.50438068 -212 34 C-221.43046646 29.48007229 -234.25241489 29.54843294 -244.3125 31.9375 C-251.60001506 34.54197273 -259.87640435 40.41622524 -264 47 C-264 47.66 -264 48.32 -264 49 C-264.66 49 -265.32 49 -266 49 C-271.00655193 59.22330261 -273.30392249 67.18666888 -272.97265625 78.59375 C-273 81 -273 81 -274 82 C-275.9602633 81.9385431 -277.92050316 81.87252095 -279.87963867 81.78198242 C-289.37786397 81.41311005 -295.90553025 82.63315188 -304 88 C-304.75410156 88.47566406 -305.50820313 88.95132813 -306.28515625 89.44140625 C-308.4383695 90.82911412 -308.4383695 90.82911412 -311 93 C-311 93.66 -311 94.32 -311 95 C-311.66 95 -312.32 95 -313 95 C-314.85961558 97.30005085 -316.43594206 99.50684496 -318 102 C-318.40089844 102.60585937 -318.80179687 103.21171875 -319.21484375 103.8359375 C-323.49026542 111.53473951 -322.33075956 120.48294122 -322 129 C-322.78375 129.309375 -323.5675 129.61875 -324.375 129.9375 C-326.92330128 130.92875038 -326.92330128 130.92875038 -329 132 C-329 132.66 -329 133.32 -329 134 C-329.66 134 -330.32 134 -331 134 C-331 134.66 -331 135.32 -331 136 C-331.66 136 -332.32 136 -333 136 C-333 136.66 -333 137.32 -333 138 C-333.66 138 -334.32 138 -335 138 C-335.967407 139.68231469 -336.92347446 141.37115197 -337.875 143.0625 C-338.40867187 144.00222656 -338.94234375 144.94195312 -339.4921875 145.91015625 C-343.72758847 154.58943648 -344.6253684 164.59906465 -342.2421875 173.984375 C-340.4270626 178.70084127 -338.13259829 183.03204216 -335 187 C-334.34 187 -333.68 187 -333 187 C-333 187.66 -333 188.32 -333 189 C-332.34 189 -331.68 189 -331 189 C-331 189.66 -331 190.32 -331 191 C-323.15825447 197.4779637 -315.04379658 200.20287329 -305 201 C-304.67 201.33 -304.34 201.66 -304 202 C-304.25700017 206.19766946 -304.92671977 209.0934876 -307 212.75 C-310.20858289 218.79244077 -310.75007288 225.66387188 -309.25 232.3125 C-305.96505286 242.00309407 -301.08862127 248.24815392 -292 253 C-284.8462295 255.57582571 -277.4108026 255.36204331 -270 254 C-267.97843296 253.04435012 -265.97033426 252.05725253 -264 251 C-261.125 251.3125 -261.125 251.3125 -259 252 C-259.02320313 252.61746094 -259.04640625 253.23492187 -259.0703125 253.87109375 C-259.30035613 264.66671275 -256.99316244 273.01025634 -251 282 C-250.34 282 -249.68 282 -249 282 C-249 282.66 -249 283.32 -249 284 C-248.34 284 -247.68 284 -247 284 C-247 284.66 -247 285.32 -247 286 C-244.69614555 287.75751597 -244.69614555 287.75751597 -241.8125 289.5 C-240.84957031 290.1084375 -239.88664062 290.716875 -238.89453125 291.34375 C-231.35812574 295.6560792 -223.38877388 297.26297145 -214.8125 297.6875 C-214.07273926 297.72439941 -213.33297852 297.76129883 -212.57080078 297.79931641 C-196.69270934 298.4676151 -183.02820886 295.64328423 -169.46484375 287.13671875 C-166.48833435 285.76403375 -164.24053332 285.79776062 -161 286 C-160.95875 286.804375 -160.9175 287.60875 -160.875 288.4375 C-159.06254017 295.81680072 -154.98638984 300.69746158 -148.75 304.9375 C-141.64095214 309.05882639 -135.63267766 310.87864571 -127.5 309.0625 C-121.60299803 307.19763613 -116.68725179 304.00248866 -112 300 C-111.67 299.34 -111.34 298.68 -111 298 C-107.56237713 297.57906659 -105.01052942 297.29612818 -102.08203125 299.3359375 C-100.88564269 300.42263585 -99.71565728 301.53933658 -98.578125 302.6875 C-96.95767626 304.31971767 -96.95767626 304.31971767 -94 304 C-94 304.66 -94 305.32 -94 306 C-76.27354658 313.99576197 -56.44862292 317.00687587 -37.51171875 311.00390625 C-26.93608205 306.77694104 -17.78539372 300.27198083 -10 292 C-9 291 -9 291 -6.67578125 290.76171875 C-3.53644009 291.04128052 -2.53869326 291.77809909 -0.1875 293.8125 C8.84758523 300.90671507 19.04797554 301.52004916 30.28515625 300.78515625 C40.28886697 299.4298148 49.64334457 295.00731705 57 288 C57 287.34 57 286.68 57 286 C62.62554676 285.51082202 66.43102037 286.73682857 71.5703125 289.02734375 C81.74812742 293.10174233 92.15321335 291.06495552 102 287 C105.02438748 285.30754475 107.49040934 283.38217215 110 281 C110.61488281 280.42507813 111.22976563 279.85015625 111.86328125 279.2578125 C120.7450017 270.09081195 122.4037884 261.07581619 122.3125 248.75 C122.24836079 245.16453573 122.14799981 241.58296159 122 238 C125.15310713 236.66770121 128.14360235 235.66182489 131.5 235 C134.83873242 234.29769568 137.8770384 233.41036975 141 232 C141 231.34 141 230.68 141 230 C141.99 230 142.98 230 144 230 C144 229.34 144 228.68 144 228 C144.598125 227.731875 145.19625 227.46375 145.8125 227.1875 C151.69956218 223.99166624 155.08402667 217.93873729 157.3046875 211.80859375 C159.23258663 204.02118099 159.00379712 196.24001078 155.2734375 189.0703125 C150.88440149 181.71635642 150.88440149 181.71635642 144 177 C144 176.34 144 175.68 144 175 C139.06264552 171.77998621 134.96738426 170.36723378 129.13671875 169.4921875 C127 169 127 169 125 167 C125.20648379 162.97356605 126.53014723 159.72705894 128.0625 156.0625 C131.68149856 146.31904234 131.22850885 135.99450679 127.21484375 126.453125 C124.51977906 120.96799955 124.51977906 120.96799955 121 116 C120.34 116 119.68 116 119 116 C119 115.34 119 114.68 119 114 C118.34 114 117.68 114 117 114 C116.67 113.01 116.34 112.02 116 111 C107.52730999 103.81663238 97.14645474 101.0657455 86.25 100.4375 C85.20392578 100.37272461 85.20392578 100.37272461 84.13671875 100.30664062 C82.42468078 100.20110404 80.71236439 100.1001009 79 100 C77.82893551 96.59538204 78.20040207 94.77491529 79.4375 91.4375 C82.99490826 80.15590437 80.85940135 68.86857051 75.69140625 58.33203125 C74.29904864 55.90416714 74.29904864 55.90416714 72 53 C71.34 53 70.68 53 70 53 C70 52.34 70 51.68 70 51 C69.34 51 68.68 51 68 51 C68 50.34 68 49.68 68 49 C59.53338113 41.65817349 50.62823823 39.7642695 39.75 39.6875 C38.98115479 39.68186035 38.21230957 39.6762207 37.42016602 39.67041016 C32.85340056 39.72892664 29.34303196 40.49433561 25 42 C21.625 42.125 21.625 42.125 19 42 C18.5978125 40.80117187 18.5978125 40.80117187 18.1875 39.578125 C15.20422532 31.21710519 11.66188906 23.9367515 6 17 C5.34 17 4.68 17 4 17 C3.67 16.01 3.34 15.02 3 14 C2.34 14 1.68 14 1 14 C1 13.34 1 12.68 1 12 C-10.45339651 1.60242762 -23.78662855 -2.32195074 -38.95703125 -2.15234375 C-47.73220022 -1.71302207 -55.77028473 1.08707673 -64 4 C-64 4.66 -64 5.32 -64 6 C-64.556875 6.0825 -65.11375 6.165 -65.6875 6.25 C-68.19276318 6.89606528 -68.19276318 6.89606528 -70.375 9.0625 C-73 11 -73 11 -76 11.5625 C-79.95680071 10.82059987 -81.3573733 8.93625189 -84 6 C-84.66 6 -85.32 6 -86 6 C-86 5.34 -86 4.68 -86 4 C-101.09196871 -3.91087721 -116.5554768 -3.62968213 -131 6 Z " fill="#4A4A4A" transform="translate(352,22)"/>
<path d="M0 0 C6.24466578 6.52851423 9.67726241 15.51636184 10.125 24.5 C9.85054257 35.7527546 5.61607677 44.84769913 -2.09765625 52.7734375 C-9.78522252 60.01778424 -16.75848894 62.43107535 -27.27929688 62.36108398 C-33.19984297 62.1316979 -38.06411358 60.66740038 -43.25 57.875 C-43.25 57.215 -43.25 56.555 -43.25 55.875 C-43.806875 55.7925 -44.36375 55.71 -44.9375 55.625 C-47.98677919 54.63604459 -49.90189963 53.02742534 -52.25 50.875 C-52.25 50.215 -52.25 49.555 -52.25 48.875 C-52.91 48.875 -53.57 48.875 -54.25 48.875 C-61.08877004 39.97344877 -62.92614106 31.66336227 -61.7265625 20.671875 C-60.69630791 14.6254628 -57.92128609 9.73057193 -54.25 4.875 C-53.59 4.875 -52.93 4.875 -52.25 4.875 C-52.25 4.215 -52.25 3.555 -52.25 2.875 C-35.21548544 -7.13196768 -17.4810445 -11.42991371 0 0 Z M-48.953125 12.64453125 C-51.41923807 15.89724936 -52.94496 18.80780001 -53.25 22.875 C-53.3325 23.9475 -53.415 25.02 -53.5 26.125 C-53.11110727 31.958391 -51.49396274 37.00905589 -48.25 41.875 C-47.59 41.875 -46.93 41.875 -46.25 41.875 C-45.59 43.195 -44.93 44.515 -44.25 45.875 C-43.59 45.875 -42.93 45.875 -42.25 45.875 C-42.25 46.535 -42.25 47.195 -42.25 47.875 C-34.41308767 52.93107247 -27.48343433 53.9468376 -18.25 52.875 C-15.58373835 52.12657568 -13.66716842 51.2562391 -11.25 49.875 C-11.25 49.215 -11.25 48.555 -11.25 47.875 C-10.59 47.875 -9.93 47.875 -9.25 47.875 C-2.47525084 40.06992441 1.32845515 32.92544326 1.05859375 22.49609375 C0.19323902 15.14605551 -2.596103 9.64052336 -8.37109375 5.03125 C-20.76490021 -2.59570782 -39.26386655 2.57748061 -48.953125 12.64453125 Z " fill="#4C4C4C" transform="translate(364.25,358.125)"/>
<path d="M0 0 C4.03614275 0.9796463 7.9506186 1.48924117 12.08984375 1.78125 C13.9375 2.125 13.9375 2.125 15.9375 4.125 C15.77206999 8.26075024 14.94205071 11.31948305 12.9375 14.875 C9.72891711 20.91744077 9.18742712 27.78887188 10.6875 34.4375 C13.66960337 43.23470494 18.68260357 49.69121774 26.9375 54.125 C34.28719881 56.71525843 41.33377035 56.05179798 48.9375 55.125 C50.83277251 54.91162495 52.72857729 54.70289829 54.625 54.5 C55.83736328 54.35691406 55.83736328 54.35691406 57.07421875 54.2109375 C57.68910156 54.18257813 58.30398437 54.15421875 58.9375 54.125 C59.9375 55.125 59.9375 55.125 60.03515625 58.28515625 C60.02355469 59.57292969 60.01195313 60.86070312 60 62.1875 C59.99097656 63.47785156 59.98195313 64.76820313 59.97265625 66.09765625 C59.96105469 67.09667969 59.94945313 68.09570312 59.9375 69.125 C59.2775 69.125 58.6175 69.125 57.9375 69.125 C57.64875 69.764375 57.36 70.40375 57.0625 71.0625 C55.9375 73.125 55.9375 73.125 53.9375 74.125 C52.65432108 70.27546324 52.87106363 67.17761865 52.9375 63.125 C52.28136719 63.44855469 51.62523437 63.77210938 50.94921875 64.10546875 C42.1031847 67.10004059 29.32048127 66.17195648 20.9375 62.125 C11.86990354 57.17903829 5.29600177 49.99059894 1.9375 40.125 C-0.20820725 29.94664511 0.17949197 19.8331874 3.9375 10.125 C1.2975 9.465 -1.3425 8.805 -4.0625 8.125 C-4.7225 5.485 -5.3825 2.845 -6.0625 0.125 C-3.52477352 -1.14386324 -2.70581634 -0.69673578 0 0 Z " fill="#4A4A4A" transform="translate(33.0625,219.875)"/>
<path d="M0 0 C1.10965575 3.55614086 1.10047794 6.85332143 1.0625 10.5625 C1.05347656 11.69816406 1.04445313 12.83382812 1.03515625 14.00390625 C1.02355469 14.99261719 1.01195313 15.98132813 1 17 C1 17.99 1 18.98 1 20 C0.84872598 21.56406528 0.68097478 23.12659252 0.5 24.6875 C0.36078125 25.89986328 0.36078125 25.89986328 0.21875 27.13671875 C0.1465625 27.75160156 0.074375 28.36648437 0 29 C-0.66 29 -1.32 29 -2 29 C-2 29.66 -2 30.32 -2 31 C-2.66 31 -3.32 31 -4 31 C-4 31.66 -4 32.32 -4 33 C-4.66 33 -5.32 33 -6 33 C-6.2475 33.66 -6.495 34.32 -6.75 35 C-8.03544583 38.08506999 -9.52391641 40.99193412 -11.09765625 43.9375 C-14.63486032 52.02253787 -14.35664824 63.55899764 -11.1875 71.6875 C-10.09803831 74.1043518 -8.97427158 76.03371099 -7.36328125 78.14453125 C-6 80 -6 80 -6 82 C-5.34 82 -4.68 82 -4 82 C-4 82.66 -4 83.32 -4 84 C-3.34 84 -2.68 84 -2 84 C-2 84.66 -2 85.32 -2 86 C-0.948125 86.37125 -0.948125 86.37125 0.125 86.75 C3.37002459 88.16088026 6.10316737 89.97895398 9 92 C7.68 92.99 6.36 93.98 5 95 C5.33 96.65 5.66 98.3 6 100 C-3.08160678 98.33365013 -10.75990102 90.15407722 -16 83 C-22.841908 71.63163887 -25.28937434 58.9311629 -22.125 45.94140625 C-19.31876021 36.14152886 -15.0109709 28.83329189 -6.6875 22.9375 C-3.13983669 20.05416746 -2.40902744 17.44495318 -1.78637695 12.95141602 C-1.56935979 10.8174534 -1.3973601 8.6869619 -1.25390625 6.546875 C-1 3 -1 3 0 0 Z " fill="#4E4E4E" transform="translate(23,127)"/>
<path d="M0 0 C0.66 0.33 1.32 0.66 2 1 C-0.80804268 3.96404505 -3.18315774 6.44499019 -7 8 C-7 8.99 -7 9.98 -7 11 C-6.34 11 -5.68 11 -5 11 C-4.67 10.01 -4.34 9.02 -4 8 C-3.01 8.99 -2.02 9.98 -1 11 C0.65 9.68 2.3 8.36 4 7 C1.37529761 13.44886555 -5.28240681 16.72413465 -11.328125 19.5625 C-14.20190818 20.76104464 -17.08266105 21.91226365 -20 23 C-20.03738281 24.03898437 -20.07476562 25.07796875 -20.11328125 26.1484375 C-20.78176493 41.51986881 -24.18010869 55.54676673 -36.03515625 66.4609375 C-39.75048459 69.37115492 -43.65974908 72.11821289 -48 74 C-51 73 -51 73 -52.4375 71.0625 C-54.14588579 68.80743076 -55.4723953 68.15740421 -58 67 C-57.41992188 66.75765625 -56.83984375 66.5153125 -56.2421875 66.265625 C-45.82313563 61.79540472 -38.33754023 56.17465434 -33.0625 45.9375 C-30.20384792 38.74446311 -30.65731869 31.38511078 -30.92016602 23.74584961 C-30.96935181 22.28997437 -30.96935181 22.28997437 -31.01953125 20.8046875 C-31.06182861 19.92796387 -31.10412598 19.05124023 -31.14770508 18.14794922 C-31 16 -31 16 -29 14 C-26.91541362 13.40562271 -24.80616925 12.8957852 -22.6875 12.4375 C-21.55699219 12.18871094 -20.42648437 11.93992188 -19.26171875 11.68359375 C-16.51057278 11.10700627 -13.75788912 10.54329898 -11 10 C-11 9.34 -11 8.68 -11 8 C-10.01 8 -9.02 8 -8 8 C-8 7.34 -8 6.68 -8 6 C-6.25 4.4921875 -6.25 4.4921875 -4 2.875 C-3.2575 2.33617187 -2.515 1.79734375 -1.75 1.2421875 C-0.88375 0.62730469 -0.88375 0.62730469 0 0 Z " fill="#505050" transform="translate(504,244)"/>
<path d="M0 0 C4.71463989 3.75246848 6.68167691 6.62084617 7.4765625 12.5 C7.7978981 19.80615676 7.01566686 24.92795002 2.0625 30.4375 C-2.25005192 34.64223812 -5.40854303 35.24663532 -11.25 35.6875 C-17.44409103 35.26756163 -22.02761348 33.82685401 -26.3125 29.1875 C-29.80957136 24.64226011 -31.24356321 20.17395662 -30.8125 14.4375 C-29.93447002 9.17952975 -27.88521376 4.92391314 -23.5625 1.625 C-16.20397001 -1.70385881 -7.64373597 -3.83834156 0 0 Z M-20.9375 11.4375 C-22.38897903 14.34045805 -22.30989025 16.21011779 -21.9375 19.4375 C-19.61922967 22.98308992 -17.7447626 25.008105 -14 27 C-9.97813279 27.57455246 -8.28425196 26.66866798 -4.9375 24.4375 C-2.47392876 22.05887949 -1.92649587 20.39788514 -1 17.0625 C-0.70244757 13.3815796 -0.70244757 13.3815796 -2.3125 10 C-5.1030043 7.27593628 -5.57796272 6.99453262 -9.25 6.8125 C-14.04420933 7.12947252 -17.04580968 8.68088602 -20.9375 11.4375 Z " fill="#565656" transform="translate(396.9375,433.5625)"/>
<path d="M0 0 C2 3 2 3 2 6 C0.60669619 6.2246285 -0.78989209 6.4289245 -2.1875 6.625 C-2.96480469 6.74101562 -3.74210937 6.85703125 -4.54296875 6.9765625 C-7.46978359 7.00448124 -9.30505117 6.10023141 -12 5 C-23.88506392 3.7055871 -34.50645611 6.74518188 -44 14 C-48.476827 18.83620532 -50.13932323 23.1575253 -50.0625 29.6875 C-50.05347656 30.68136719 -50.04445313 31.67523438 -50.03515625 32.69921875 C-50.02355469 33.45847656 -50.01195312 34.21773438 -50 35 C-50.639375 35.268125 -51.27875 35.53625 -51.9375 35.8125 C-54.33131686 36.88667752 -54.33131686 36.88667752 -55 40 C-59.54002984 33.18995525 -59.28279924 27.90709039 -58 20 C-56.63169361 15.16650211 -54.00832888 10.97875755 -51 7 C-50.34 7 -49.68 7 -49 7 C-49 6.34 -49 5.68 -49 5 C-34.37813863 -3.5896486 -15.76023458 -10.04498468 0 0 Z " fill="#4B4B4B" transform="translate(361,356)"/>
<path d="M0 0 C2.3125 0.75 2.3125 0.75 3.3125 1.75 C3.33333333 3.25 3.30321237 4.75079939 3.25 6.25 C3.19498917 13.97352027 4.71313138 20.24323339 8.41015625 27.0234375 C9.3125 28.75 9.3125 28.75 10.3125 31.75 C10.9725 31.75 11.6325 31.75 12.3125 31.75 C12.3125 32.41 12.3125 33.07 12.3125 33.75 C12.9725 33.75 13.6325 33.75 14.3125 33.75 C14.3125 34.41 14.3125 35.07 14.3125 35.75 C15.01375 35.9975 15.715 36.245 16.4375 36.5 C19.68335932 37.91124318 22.37121867 39.78914578 25.3125 41.75 C28.9297721 43.46820425 32.35265149 44.197463 36.3125 44.75 C36.3125 45.08 36.3125 45.41 36.3125 45.75 C32.6825 46.41 29.0525 47.07 25.3125 47.75 C25.9725 49.07 26.6325 50.39 27.3125 51.75 C16.79650142 50.51825785 7.73673872 42.87073671 1.3125 34.75 C-3.29845809 26.95505401 -5.83496244 20.74520882 -5.6875 11.75 C-6.3475 11.42 -7.0075 11.09 -7.6875 10.75 C-6.6975 10.75 -5.7075 10.75 -4.6875 10.75 C-4.0275 14.05 -3.3675 17.35 -2.6875 20.75 C0.01278512 17.92745787 1.24174572 16.35353399 1.703125 12.41796875 C1.65671875 11.26941406 1.6103125 10.12085938 1.5625 8.9375 C1.52640625 7.77605469 1.4903125 6.61460937 1.453125 5.41796875 C1.40671875 4.53753906 1.3603125 3.65710938 1.3125 2.75 C-1.3275 2.75 -3.9675 2.75 -6.6875 2.75 C-4.28017516 0.52099552 -3.34709579 -0.31135775 0 0 Z " fill="#5D5D5D" transform="translate(90.6875,272.25)"/>
<path d="M0 0 C3.6446752 0.36446752 6.46382563 0.70073989 9.6875 2.5 C17.59264077 6.07968639 26.01306744 5.17690723 34.30859375 3.47265625 C36.94872996 3.00900388 39.32619427 2.84438168 42 3 C43 4 43 4 43.09765625 7.16015625 C43.08605469 8.44792969 43.07445312 9.73570312 43.0625 11.0625 C43.05347656 12.35285156 43.04445312 13.64320313 43.03515625 14.97265625 C43.02355469 15.97167969 43.01195312 16.97070312 43 18 C42.34 18 41.68 18 41 18 C40.71125 18.639375 40.4225 19.27875 40.125 19.9375 C39 22 39 22 37 23 C35.71682108 19.15046324 35.93356363 16.05261865 36 12 C35.34386719 12.32355469 34.68773437 12.64710938 34.01171875 12.98046875 C30.25066034 14.25366751 26.73758193 14.34241943 22.8125 14.3125 C21.68183105 14.30512817 21.68183105 14.30512817 20.52832031 14.29760742 C13.30939185 14.14650276 6.27895249 13.56717203 0.875 8.3125 C0.25625 7.549375 -0.3625 6.78625 -1 6 C-0.34 5.01 0.32 4.02 1 3 C0.67 2.01 0.34 1.02 0 0 Z " fill="#3C3C3C" transform="translate(50,271)"/>
<path d="M0 0 C1.65 0.33 3.3 0.66 5 1 C4.505 1.61875 4.01 2.2375 3.5 2.875 C1.80777227 4.83880904 1.80777227 4.83880904 2 7 C1.34 7 0.68 7 0 7 C0 9.97 0 12.94 0 16 C0.66 16 1.32 16 2 16 C2.86625 17.175625 2.86625 17.175625 3.75 18.375 C6.46444775 21.5418557 7.8848686 22.36690286 12 23 C14.09246742 22.36807484 16.03025885 21.54923266 18.03125 20.671875 C20.88722817 19.69721578 23.14468116 20.21478732 26 21 C25.74123708 24.79518955 25.4461863 26.54141964 22.75 29.3125 C17.603347 32.47067343 11.88691602 32.82107334 5.984375 31.57421875 C0.43740269 29.84872927 -2.91168889 26.89066972 -6 22 C-8.06852021 17.05353863 -8.89132351 12.1151704 -7 7 C-5.16462361 4.93520156 -3.28165626 3.61617318 -1 2 C-0.67 1.34 -0.34 0.68 0 0 Z " fill="#464646" transform="translate(374,437)"/>
<path d="M0 0 C3.48299045 0.49757006 6.13292037 2.00897248 9 4 C9 4.66 9 5.32 9 6 C9.61875 6.309375 10.2375 6.61875 10.875 6.9375 C12.25 7.625 13.625 8.3125 15 9 C15 9.66 15 10.32 15 11 C15.66 11 16.32 11 17 11 C18.46646324 12.99427005 19.77377834 14.9576648 21.0625 17.0625 C21.42666016 17.62388672 21.79082031 18.18527344 22.16601562 18.76367188 C24.75296113 22.94773346 25.60294132 26.2047529 26 31 C25.38125 31.061875 24.7625 31.12375 24.125 31.1875 C21.72238859 31.828919 21.72238859 31.828919 20.75 34.5625 C20.5025 35.366875 20.255 36.17125 20 37 C18.35767468 34.53651202 17.5363358 32.90542501 16.625 30.1875 C15.62217104 27.39500704 14.5065776 25.06135895 12.8125 22.625 C11 20 11 20 11 18 C10.34 18 9.68 18 9 18 C9 17.34 9 16.68 9 16 C8.34 16 7.68 16 7 16 C6.34 15.278125 5.68 14.55625 5 13.8125 C1.41035471 10.01680256 -3.31258771 8.13891629 -8 6 C-4.25 4.875 -4.25 4.875 -2 6 C-1.855625 5.195625 -1.71125 4.39125 -1.5625 3.5625 C-1 1 -1 1 0 0 Z " fill="#4C4C4C" transform="translate(462,120)"/>
<path d="M0 0 C1.9765625 1.3203125 1.9765625 1.3203125 4 4 C4.57268429 7.62905864 4.46579202 11.20986939 4.375 14.875 C4.37371094 15.85597656 4.37242187 16.83695313 4.37109375 17.84765625 C4.30926866 22.93792238 4.0164343 27.24121504 2 32 C1.34 32 0.68 32 0 32 C0.20625 32.928125 0.4125 33.85625 0.625 34.8125 C1 38 1 38 -1 41 C-4.96 40.505 -4.96 40.505 -9 40 C-10.15716846 35.91329115 -9.83608913 33.73380099 -8.125 29.875 C-7.75632812 29.02679688 -7.38765625 28.17859375 -7.0078125 27.3046875 C-6.67523438 26.54414063 -6.34265625 25.78359375 -6 25 C-5.10382098 22.31146293 -4.86765416 20.67533599 -4.82421875 17.91015625 C-4.80037109 17.12576172 -4.77652344 16.34136719 -4.75195312 15.53320312 C-4.70909311 13.89023579 -4.67778307 12.24692528 -4.65820312 10.60351562 C-4.44498377 4.55899491 -4.44498377 4.55899491 -1.95703125 1.43359375 C-1.31121094 0.96050781 -0.66539062 0.48742187 0 0 Z " fill="#404040" transform="translate(486,150)"/>
<path d="M0 0 C0.82288094 2.57150294 0.98223003 4.45313414 0.875 7.1875 C1.02919403 11.890418 2.36648649 15.6326789 4 20 C4.33 20.99 4.66 21.98 5 23 C5.66 23 6.32 23 7 23 C9.125 24.875 9.125 24.875 11 27 C11 27.66 11 28.32 11 29 C11.721875 29.28875 12.44375 29.5775 13.1875 29.875 C15.79166667 30.91666667 18.39583333 31.95833333 21 33 C19.515 33.495 19.515 33.495 18 34 C17.67 36.31 17.34 38.62 17 41 C14.61435923 40.42415568 12.33317216 39.77772405 10 39 C10 38.34 10 37.68 10 37 C9.443125 36.9175 8.88625 36.835 8.3125 36.75 C5.26322081 35.76104459 3.34810037 34.15242534 1 32 C1 31.34 1 30.68 1 30 C0.34 30 -0.32 30 -1 30 C-5.00464712 24.72066414 -7.71105501 19.64573468 -8 13 C-6 16 -6 16 -5 18 C-2.54009232 15.69383655 -1.09066735 13.96506943 -0.76953125 10.546875 C-0.79764698 8.79858785 -0.85886567 7.05044291 -0.95703125 5.3046875 C-1 3 -1 3 0 0 Z " fill="#5A5A5A" transform="translate(311,377)"/>
<path d="M0 0 C1.78785686 0.24539212 3.5756626 0.49115982 5.36328125 0.73828125 C14.21777145 1.61717139 23.19208085 1.1365057 32 0 C33 3 33 3 33 6 C29.49237507 8.70949703 26.81481221 9.38280424 22.4375 9.3984375 C20.87128906 9.40423828 20.87128906 9.40423828 19.2734375 9.41015625 C17.65308594 9.39275391 17.65308594 9.39275391 16 9.375 C14.91976563 9.38660156 13.83953125 9.39820313 12.7265625 9.41015625 C11.68242187 9.40628906 10.63828125 9.40242188 9.5625 9.3984375 C8.61503906 9.39505371 7.66757812 9.39166992 6.69140625 9.38818359 C3.48541008 8.9257803 1.57753556 7.94182829 -1 6 C-1.375 3.375 -1.375 3.375 -1 1 C-0.67 0.67 -0.34 0.34 0 0 Z " fill="#303030" transform="translate(360,322)"/>
<path d="M0 0 C0.66 0.66 1.32 1.32 2 2 C3.58449673 2.69269149 5.1924167 3.33270129 6.8125 3.9375 C10.42971252 5.34564786 13.84674013 6.68760943 17 9 C17 9.66 17 10.32 17 11 C17.639375 11.268125 18.27875 11.53625 18.9375 11.8125 C21 13 21 13 22 16 C22.66 16 23.32 16 24 16 C24.66 17.65 25.32 19.3 26 21 C25.236875 20.62875 24.47375 20.2575 23.6875 19.875 C22.800625 19.58625 21.91375 19.2975 21 19 C20.01 19.66 19.02 20.32 18 21 C18.33 22.32 18.66 23.64 19 25 C18.2575 24.236875 17.515 23.47375 16.75 22.6875 C14.176446 20.04428801 14.176446 20.04428801 11.6875 18.3125 C11.130625 17.879375 10.57375 17.44625 10 17 C10 16.34 10 15.68 10 15 C9.113125 14.71125 8.22625 14.4225 7.3125 14.125 C5.37767375 13.4678892 3.45295869 12.7755728 1.5625 12 C-1.57063513 10.77731312 -4.75856329 9.88980616 -8 9 C-5.3333581 7.66667905 -3.83319697 8.32897967 -1 9 C-0.67 6.03 -0.34 3.06 0 0 Z " fill="#505050" transform="translate(486,182)"/>
<path d="M0 0 C0.66 0.66 1.32 1.32 2 2 C1.34 2.66 0.68 3.32 0 4 C0 4.99 0 5.98 0 7 C-1.44632813 7.07347656 -1.44632813 7.07347656 -2.921875 7.1484375 C-4.18515625 7.22320312 -5.4484375 7.29796875 -6.75 7.375 C-8.62945312 7.47941406 -8.62945312 7.47941406 -10.546875 7.5859375 C-13.71150014 7.96540613 -15.26733513 8.56419303 -18 10 C-20.359375 10.1953125 -20.359375 10.1953125 -22.75 10.125 C-23.54921875 10.10695313 -24.3484375 10.08890625 -25.171875 10.0703125 C-25.77515625 10.04710937 -26.3784375 10.02390625 -27 10 C-27.33 9.34 -27.66 8.68 -28 8 C-25.54545455 2.27272727 -25.54545455 2.27272727 -23 1 C-15.42315217 -0.13652717 -7.64665434 -0.59914025 0 0 Z " fill="#313131" transform="translate(128,45)"/>
<path d="M0 0 C1.10965575 3.55614086 1.10047794 6.85332143 1.0625 10.5625 C1.05347656 11.69816406 1.04445313 12.83382812 1.03515625 14.00390625 C1.02355469 14.99261719 1.01195313 15.98132813 1 17 C1 17.99 1 18.98 1 20 C0.84872598 21.56406528 0.68097478 23.12659252 0.5 24.6875 C0.36078125 25.89986328 0.36078125 25.89986328 0.21875 27.13671875 C0.1465625 27.75160156 0.074375 28.36648437 0 29 C-0.66 29 -1.32 29 -2 29 C-2 29.66 -2 30.32 -2 31 C-2.66 31 -3.32 31 -4 31 C-4 31.66 -4 32.32 -4 33 C-4.66 33 -5.32 33 -6 33 C-6 33.66 -6 34.32 -6 35 C-8.375 35.125 -8.375 35.125 -11 35 C-11.66 34.34 -12.32 33.68 -13 33 C-13 33.66 -13 34.32 -13 35 C-13.639375 35.12375 -14.27875 35.2475 -14.9375 35.375 C-15.618125 35.58125 -16.29875 35.7875 -17 36 C-17.33 36.66 -17.66 37.32 -18 38 C-16.71598145 31.34376589 -12.1529813 26.74960997 -6.75 23 C-3.17610657 20.08642592 -2.40975705 17.48619294 -1.78417969 12.94921875 C-1.56915431 10.81601542 -1.39753313 8.6859988 -1.25390625 6.546875 C-1 3 -1 3 0 0 Z " fill="#5F5F5F" transform="translate(23,127)"/>
<path d="M0 0 C2.5874606 3.32673505 2.50587715 5.83350216 2.5625 10 C2.60117187 11.69576172 2.60117187 11.69576172 2.640625 13.42578125 C2.28455734 16.96526337 1.35680289 18.82009621 -0.6875 21.6875 C-1.0175 20.6975 -1.3475 19.7075 -1.6875 18.6875 C-2.615625 18.6875 -3.54375 18.6875 -4.5 18.6875 C-6.5625 18.6875 -8.625 18.6875 -10.6875 18.6875 C-9.9759375 17.9140625 -9.9759375 17.9140625 -9.25 17.125 C-7.2003746 13.92758438 -6.88619911 11.46278315 -6.6875 7.6875 C-7.50721716 4.83847933 -7.50721716 4.83847933 -8.6875 2.6875 C-7.11682829 0.88122753 -5.89450414 -0.22193569 -3.6875 -1.1875 C-1.6875 -1.3125 -1.6875 -1.3125 0 0 Z " fill="#595959" transform="translate(401.6875,439.3125)"/>
<path d="M0 0 C2.475 0.99 2.475 0.99 5 2 C4.835 2.763125 4.67 3.52625 4.5 4.3125 C3.83437851 9.22145849 3.92079922 14.05435114 4 19 C3.360625 19.268125 2.72125 19.53625 2.0625 19.8125 C-0.33131686 20.88667752 -0.33131686 20.88667752 -1 24 C-4.22230299 19.16654552 -5.33164413 15.76339525 -4.875 9.9375 C-4.81054688 8.91527344 -4.74609375 7.89304687 -4.6796875 6.83984375 C-3.87375673 3.47253531 -2.61840768 2.19252209 0 0 Z " fill="#323232" transform="translate(307,372)"/>
<path d="M0 0 C-0.66 1.98 -1.32 3.96 -2 6 C0.97 6.495 0.97 6.495 4 7 C3.17242187 7.38285156 3.17242187 7.38285156 2.328125 7.7734375 C-0.36637058 9.19302074 -2.76778728 10.86132254 -5.25 12.625 C-6.14203125 13.25664063 -7.0340625 13.88828125 -7.953125 14.5390625 C-8.96632813 15.26222656 -8.96632813 15.26222656 -10 16 C-10.33 15.34 -10.66 14.68 -11 14 C-11.99 13.67 -12.98 13.34 -14 13 C-14 12.34 -14 11.68 -14 11 C-14.78375 11.825 -15.5675 12.65 -16.375 13.5 C-19 16 -19 16 -21 16 C-21 15.34 -21 14.68 -21 14 C-20.34 14 -19.68 14 -19 14 C-18.60361328 13.1028125 -18.60361328 13.1028125 -18.19921875 12.1875 C-15.02000257 6.3882783 -6.65347053 0 0 0 Z " fill="#555555" transform="translate(103,48)"/>
<path d="M0 0 C5.03779302 3.93484425 9.97209729 8.27384528 13 14 C12.67 14.99 12.34 15.98 12 17 C11.34 16.34 10.68 15.68 10 15 C8.00016466 15.79117904 8.00016466 15.79117904 6 17 C5.67 17.99 5.34 18.98 5 20 C3.99421411 18.71283353 2.99553202 17.42011342 2 16.125 C1.443125 15.40570313 0.88625 14.68640625 0.3125 13.9453125 C-1 12 -1 12 -1 10 C-1.66 10 -2.32 10 -3 10 C-3.33 9.01 -3.66 8.02 -4 7 C-3 5 -3 5 0 4 C0 2.68 0 1.36 0 0 Z " fill="#4B4B4B" transform="translate(359,29)"/>
<path d="M0 0 C1.13985352 0.00628418 1.13985352 0.00628418 2.30273438 0.01269531 C7.91309482 0.12490252 14.04490333 0.27727799 18.9375 3.3125 C19.6875 5.421875 19.6875 5.421875 19.9375 7.3125 C18.9475 7.8075 18.9475 7.8075 17.9375 8.3125 C17.9375 9.3025 17.9375 10.2925 17.9375 11.3125 C9.6875 10.6525 1.4375 9.9925 -7.0625 9.3125 C-7.0625 8.9825 -7.0625 8.6525 -7.0625 8.3125 C-2.4425 8.3125 2.1775 8.3125 6.9375 8.3125 C6.6075 6.6625 6.2775 5.0125 5.9375 3.3125 C6.2675 2.9825 6.5975 2.6525 6.9375 2.3125 C0.9975 2.3125 -4.9425 2.3125 -11.0625 2.3125 C-7.31988253 -0.18257831 -4.33693342 -0.03186165 0 0 Z " fill="#737373" transform="translate(121.0625,43.6875)"/>
<path d="M0 0 C11.15511437 2.55674521 21.77841058 2.00753205 33 0 C32 2 32 2 30.20703125 2.6328125 C20.20724048 4.68823442 10.06532135 4.61045142 0 3 C0 4.98 0 6.96 0 9 C-4.25462189 8.46817226 -7.37385548 6.84471666 -11.03515625 4.7421875 C-13.42950426 3.83776181 -14.62515175 4.1643073 -17 5 C-17 3.68 -17 2.36 -17 1 C-15.54119891 1.14107747 -14.08296449 1.28802415 -12.625 1.4375 C-11.40683594 1.55931641 -11.40683594 1.55931641 -10.1640625 1.68359375 C-8 2 -8 2 -6 3 C-6 2.01 -6 1.02 -6 0 C-3.43711099 -1.2814445 -2.70956734 -0.77690249 0 0 Z " fill="#828282" transform="translate(360,320)"/>
<path d="M0 0 C0.66 0.33 1.32 0.66 2 1 C1.67 2.32 1.34 3.64 1 5 C4.05263664 5.98120464 5.94736336 5.98120464 9 5 C5.33333333 8.66666667 1.66666667 12.33333333 -2 16 C-2 15.34 -2 14.68 -2 14 C-4.31 13.67 -6.62 13.34 -9 13 C-9.33 13.66 -9.66 14.32 -10 15 C-9.36567062 11.83548038 -8.26817072 9.48312221 -6.5625 6.75 C-6.13066406 6.04359375 -5.69882812 5.3371875 -5.25390625 4.609375 C-4.84011719 4.07828125 -4.42632812 3.5471875 -4 3 C-3.34 3 -2.68 3 -2 3 C-2 2.34 -2 1.68 -2 1 C-1.34 0.67 -0.68 0.34 0 0 Z " fill="#646464" transform="translate(314,360)"/>
<path d="M0 0 C4 0 4 0 6.0625 2 C6.701875 2.66 7.34125 3.32 8 4 C8.99 4 9.98 4 11 4 C12.06351675 7.38391693 12.21442982 8.5804634 10.5625 11.8125 C10.046875 12.534375 9.53125 13.25625 9 14 C6.03 13.505 6.03 13.505 3 13 C2.690625 11.865625 2.38125 10.73125 2.0625 9.5625 C1.37075469 6.21224901 1.37075469 6.21224901 0 5 C-0.04063832 3.33382885 -0.042721 1.66611905 0 0 Z " fill="#454545" transform="translate(202,26)"/>
<path d="M0 0 C4.55015893 1.51671964 6.50057264 5.16891053 9 9 C8.67 9.66 8.34 10.32 8 11 C7.34 11 6.68 11 6 11 C3.5705484 14.6441774 3.83820425 16.71241272 4 21 C2.4506334 18.6759501 1.25606663 16.5598824 0.0625 14.0625 C-1.38169499 11.1254293 -2.89385211 8.52737747 -5 6 C-2.625 4.9375 -2.625 4.9375 0 4 C0.66 4.33 1.32 4.66 2 5 C1.34 3.35 0.68 1.7 0 0 Z " fill="#676767" transform="translate(361,357)"/>
<path d="M0 0 C0.556875 0.226875 1.11375 0.45375 1.6875 0.6875 C1.6875 2.6675 1.6875 4.6475 1.6875 6.6875 C1.089375 6.749375 0.49125 6.81125 -0.125 6.875 C-2.55705676 7.5167145 -2.55705676 7.5167145 -3.75 10.125 C-5.60541963 13.1678882 -6.96526481 13.69237602 -10.3125 14.6875 C-10.3125 13.6975 -10.3125 12.7075 -10.3125 11.6875 C-10.56 11.06875 -10.8075 10.45 -11.0625 9.8125 C-11.3125 7.6875 -11.3125 7.6875 -9.6875 5.125 C-4.1477725 -0.5605098 -4.1477725 -0.5605098 0 0 Z " fill="#3A3A3A" transform="translate(246.3125,320.3125)"/>
<path d="M0 0 C0.66 0.33 1.32 0.66 2 1 C1.2884375 1.8353125 1.2884375 1.8353125 0.5625 2.6875 C-1.12395996 5.18346074 -1.58953107 7.0446237 -2 10 C-1.01 10 -0.02 10 1 10 C1 12 1 12 -0.875 14.125 C-3 16 -3 16 -5 16 C-5.33 16.99 -5.66 17.98 -6 19 C-6.144375 18.401875 -6.28875 17.80375 -6.4375 17.1875 C-6.8872439 15.43849596 -7.42892341 13.71322977 -8 12 C-8.99 12.33 -9.98 12.66 -11 13 C-11.99 12.01 -12.98 11.02 -14 10 C-13.67 9.34 -13.34 8.68 -13 8 C-11.02 8.495 -11.02 8.495 -9 9 C-9 8.34 -9 7.68 -9 7 C-7.03125 5.2734375 -7.03125 5.2734375 -4.5 3.375 C-3.24703125 2.42753906 -3.24703125 2.42753906 -1.96875 1.4609375 C-0.99421875 0.73777344 -0.99421875 0.73777344 0 0 Z " fill="#606060" transform="translate(220,18)"/>
<path d="M0 0 C3.64775386 3.88309282 4.58525633 6.71201818 5 12 C4.38125 12.061875 3.7625 12.12375 3.125 12.1875 C0.72238859 12.828919 0.72238859 12.828919 -0.25 15.5625 C-0.4975 16.366875 -0.745 17.17125 -1 18 C-2.62214497 15.56678254 -3.5389707 13.80961447 -4.5 11.125 C-5.61409061 8.059837 -6.77229706 5.02203801 -8 2 C-7.071875 2.7425 -7.071875 2.7425 -6.125 3.5 C-4.16119096 5.19222773 -4.16119096 5.19222773 -2 5 C-1.67 4.01 -1.34 3.02 -1 2 C-0.67 1.34 -0.34 0.68 0 0 Z " fill="#5E5E5E" transform="translate(483,139)"/>
<path d="M0 0 C3.4201991 -0.41879989 5.9817601 -0.69057818 8.91796875 1.30078125 C10.11258381 2.36803863 11.28251183 3.4637909 12.421875 4.58984375 C14.05837818 6.2396333 14.05837818 6.2396333 17 7 C16.67 7.66 16.34 8.32 16 9 C14.68 8.67 13.36 8.34 12 8 C11.78918149 11.89459074 11.78918149 11.89459074 13 15 C10.5 14 10.5 14 8 13 C7.0925 12.71125 6.185 12.4225 5.25 12.125 C3 11 3 11 2.1875 8.875 C2.125625 8.25625 2.06375 7.6375 2 7 C2.33 7.66 2.66 8.32 3 9 C3.99 8.34 4.98 7.68 6 7 C6.25030977 4.41619823 6.25030977 4.41619823 6 2 C5.4225 2.144375 4.845 2.28875 4.25 2.4375 C2.16666667 2.95833333 0.08333333 3.47916667 -2 4 C-1.34 2.68 -0.68 1.36 0 0 Z " fill="#5D5D5D" transform="translate(241,319)"/>
<path d="M0 0 C0.66 0.33 1.32 0.66 2 1 C-0.80804268 3.96404505 -3.18315774 6.44499019 -7 8 C-7 8.99 -7 9.98 -7 11 C-6.34 11 -5.68 11 -5 11 C-4.67 10.01 -4.34 9.02 -4 8 C-3.01 8.99 -2.02 9.98 -1 11 C0.65 9.68 2.3 8.36 4 7 C2.54144353 10.68646141 0.69770955 12.16143971 -2.625 14.25 C-3.44226563 14.77078125 -4.25953125 15.2915625 -5.1015625 15.828125 C-6.04128906 16.40820312 -6.04128906 16.40820312 -7 17 C-7.33 16.34 -7.66 15.68 -8 15 C-8.99 15 -9.98 15 -11 15 C-12.04449911 11.86650268 -11.93423645 11.01031744 -11 8 C-10.01 8 -9.02 8 -8 8 C-8 7.34 -8 6.68 -8 6 C-6.25 4.4921875 -6.25 4.4921875 -4 2.875 C-3.2575 2.33617187 -2.515 1.79734375 -1.75 1.2421875 C-1.1725 0.83226562 -0.595 0.42234375 0 0 Z " fill="#606060" transform="translate(504,244)"/>
<path d="M0 0 C1.12894876 0.93274109 2.25300876 1.87140122 3.375 2.8125 C4.00148438 3.33457031 4.62796875 3.85664063 5.2734375 4.39453125 C7 6 7 6 9 9 C7.35 8.67 5.7 8.34 4 8 C4.66 9.32 5.32 10.64 6 12 C5.34 12.66 4.68 13.32 4 14 C1 14 1 14 -1.5625 11.75 C-3.57275078 9.48202476 -4.87225206 7.76810859 -6 5 C-4.68 5 -3.36 5 -2 5 C-1.34 3.35 -0.68 1.7 0 0 Z " fill="#5E5E5E" transform="translate(46,263)"/>
<path d="M0 0 C0.66 0.99 1.32 1.98 2 3 C0.68 3 -0.64 3 -2 3 C-0.69844994 7.07964281 -0.69844994 7.07964281 1 11 C0.34 11.66 -0.32 12.32 -1 13 C-2.15762119 11.78192862 -3.3006583 10.54998765 -4.4375 9.3125 C-5.07558594 8.62800781 -5.71367187 7.94351562 -6.37109375 7.23828125 C-8.16221098 4.77710578 -8.62798558 2.99183426 -9 0 C-5.85135005 -1.57432497 -3.35512575 -0.71895552 0 0 Z " fill="#535353" transform="translate(204,23)"/>
<path d="M0 0 C3.99455527 0.61454696 6.74466336 2.70646737 10 5 C7 7 7 7 5 7 C5 8.65 5 10.3 5 12 C4.34 12 3.68 12 3 12 C3 11.34 3 10.68 3 10 C2.01 10 1.02 10 0 10 C-0.66 7.69 -1.32 5.38 -2 3 C-1.34 3 -0.68 3 0 3 C0 2.01 0 1.02 0 0 Z " fill="#525252" transform="translate(263,16)"/>
<path d="M0 0 C5.79152098 0.36771562 5.79152098 0.36771562 8 1 C10 4 10 4 10 7 C3.72307692 8.35384615 3.72307692 8.35384615 0.0625 6.5625 C-0.618125 6.046875 -1.29875 5.53125 -2 5 C-1.125 1.125 -1.125 1.125 0 0 Z " fill="#252525" transform="translate(353,355)"/>
<path d="M0 0 C2.875 2 2.875 2 5 4 C4.34 4 3.68 4 3 4 C3 4.99 3 5.98 3 7 C-0.96 6.67 -4.92 6.34 -9 6 C-9 4.35 -9 2.7 -9 1 C-5.66660588 -0.11113137 -3.49519344 -0.34951934 0 0 Z " fill="#1F1F1F" transform="translate(351,316)"/>
<path d="M0 0 C0.33 0.66 0.66 1.32 1 2 C1.99 2.33 2.98 2.66 4 3 C3.6875 6.375 3.6875 6.375 3 10 C2.01 10.66 1.02 11.32 0 12 C0 11.34 0 10.68 0 10 C-0.99 10 -1.98 10 -3 10 C-3.33 7.36 -3.66 4.72 -4 2 C-2.68 1.34 -1.36 0.68 0 0 Z " fill="#2E2E2E" transform="translate(42,258)"/>
<path d="M0 0 C1.9375 0.8125 1.9375 0.8125 4 2 C4.33 2.99 4.66 3.98 5 5 C5.66 5 6.32 5 7 5 C7.66 6.65 8.32 8.3 9 10 C8.236875 9.62875 7.47375 9.2575 6.6875 8.875 C5.800625 8.58625 4.91375 8.2975 4 8 C3.01 8.66 2.02 9.32 1 10 C1.33 11.32 1.66 12.64 2 14 C-0.5625 11.75 -0.5625 11.75 -3 9 C-2.8125 6.6875 -2.8125 6.6875 -2 5 C-0.02 5.495 -0.02 5.495 2 6 C1.49396008 3.83125748 1.00016187 2.00032373 0 0 Z " fill="#7E7E7E" transform="translate(503,193)"/>
<path d="M0 0 C4 0 4 0 5.8125 1.6875 C7 4 7 4 6.8125 6.5625 C6 9 6 9 4 12 C4 11.34 4 10.68 4 10 C3.34 10 2.68 10 2 10 C1.855625 9.360625 1.71125 8.72125 1.5625 8.0625 C1.18992819 6.02454854 1.18992819 6.02454854 0 5 C-0.04063832 3.33382885 -0.042721 1.66611905 0 0 Z " fill="#212121" transform="translate(202,26)"/>
<path d="M0 0 C2.50037734 2.17424117 3.43628586 3.73045798 4 7 C1 9 1 9 -1.6875 8.625 C-2.450625 8.41875 -3.21375 8.2125 -4 8 C-4.25 5.6875 -4.25 5.6875 -4 3 C-2 1.1875 -2 1.1875 0 0 Z " fill="#292929" transform="translate(369,43)"/>
<path d="M0 0 C3.2447996 0.29966403 4.51622556 1.21341232 7.01953125 3.25 C7.71691406 3.806875 8.41429687 4.36375 9.1328125 4.9375 C9.65230469 5.370625 10.17179687 5.80375 10.70703125 6.25 C9.71703125 6.745 9.71703125 6.745 8.70703125 7.25 C8.02640625 6.940625 7.34578125 6.63125 6.64453125 6.3125 C2.63129407 4.86090357 -1.06997223 5.08439229 -5.29296875 5.25 C-2.90595245 0.31683298 -2.90595245 0.31683298 0 0 Z " fill="#8E8E8E" transform="translate(345.29296875,311.75)"/>
<path d="M0 0 C0 0.99 0 1.98 0 3 C0.66 3 1.32 3 2 3 C0.63016497 6.16115776 0.0109362 6.9927092 -3 9 C-3.66 8.01 -4.32 7.02 -5 6 C-5.33 6.66 -5.66 7.32 -6 8 C-6.66 8 -7.32 8 -8 8 C-8 7.01 -8 6.02 -8 5 C-2.65116279 0 -2.65116279 0 0 0 Z " fill="#202020" transform="translate(505,247)"/>
<path d="M0 0 C0 1.32 0 2.64 0 4 C-0.66 4 -1.32 4 -2 4 C-2 4.99 -2 5.98 -2 7 C-4.31 6.34 -6.62 5.68 -9 5 C-7.35234966 0.05704899 -4.76872479 -0.25776891 0 0 Z " fill="#2A2A2A" transform="translate(462,119)"/>
<path d="M0 0 C6.75 1.625 6.75 1.625 9 5 C8.01 5 7.02 5 6 5 C4.31201173 6.43750191 4.31201173 6.43750191 3 8 C2.01 7.34 1.02 6.68 0 6 C-0.1875 2.875 -0.1875 2.875 0 0 Z " fill="#212121" transform="translate(267,21)"/>
<path d="M0 0 C2.0625 0.4375 2.0625 0.4375 4 1 C4 2.98 4 4.96 4 7 C2.68 7.33 1.36 7.66 0 8 C0 7.01 0 6.02 0 5 C-0.66 5 -1.32 5 -2 5 C-1.125 1.125 -1.125 1.125 0 0 Z " fill="#1F1F1F" transform="translate(244,320)"/>
<path d="M0 0 C2.625 0.375 2.625 0.375 5 1 C4.67 2.98 4.34 4.96 4 7 C3.34 7 2.68 7 2 7 C0 5 0 5 -2 2 C-1.34 1.34 -0.68 0.68 0 0 Z " fill="#373737" transform="translate(395,457)"/>
<path d="M0 0 C0.66 0.33 1.32 0.66 2 1 C1.52949219 1.31453125 1.05898438 1.6290625 0.57421875 1.953125 C-2.88002433 4.32747014 -5.72778504 6.39118801 -8 10 C-8.99 9.67 -9.98 9.34 -11 9 C-11 8.34 -11 7.68 -11 7 C-8.6640625 5.23828125 -8.6640625 5.23828125 -5.625 3.3125 C-4.62726563 2.66925781 -3.62953125 2.02601563 -2.6015625 1.36328125 C-1.74304688 0.91339844 -0.88453125 0.46351563 0 0 Z " fill="#A1A1A1" transform="translate(332,322)"/>
<path d="M0 0 C0.66 0.33 1.32 0.66 2 1 C0.73657512 2.48549956 -0.5360103 3.96321189 -1.8125 5.4375 C-2.52019531 6.26121094 -3.22789063 7.08492188 -3.95703125 7.93359375 C-6 10 -6 10 -9 11 C-7.44095325 7.17324889 -4.96833913 4.81992217 -2 2 C-1.34 1.34 -0.68 0.68 0 0 Z " fill="#A1A1A1" transform="translate(39,105)"/>
<path d="M0 0 C1.65 0.33 3.3 0.66 5 1 C4.505 1.61875 4.01 2.2375 3.5 2.875 C1.80777227 4.83880904 1.80777227 4.83880904 2 7 C1.01 7.33 0.02 7.66 -1 8 C-1.625 5.6875 -1.625 5.6875 -2 3 C-1.34 2.01 -0.68 1.02 0 0 Z " fill="#1C1C1C" transform="translate(374,437)"/>
<path d="M0 0 C1.13199353 0.9080162 2.25532363 1.82683826 3.375 2.75 C4.00148438 3.26046875 4.62796875 3.7709375 5.2734375 4.296875 C7.08312318 6.08199481 8.00117455 7.67949644 9 10 C8.2575 9.38125 7.515 8.7625 6.75 8.125 C4.51198812 6.39562719 2.56260013 5.13893339 0 4 C0 2.68 0 1.36 0 0 Z M-2 5 C1 6 1 6 1 6 Z " fill="#909090" transform="translate(359,29)"/>
<path d="M0 0 C0.66 0.33 1.32 0.66 2 1 C2 2.98 2 4.96 2 7 C0.02 7 -1.96 7 -4 7 C-2.79618552 4.50638429 -1.54571278 2.31856917 0 0 Z " fill="#1E1E1E" transform="translate(355,406)"/>
<path d="M0 0 C0.99 0.33 1.98 0.66 3 1 C2.0022242 3.99332739 1.2477975 4.94766315 -1 7 C-1.66 6.67 -2.32 6.34 -3 6 C-1.125 1.125 -1.125 1.125 0 0 Z " fill="#212121" transform="translate(480,138)"/>
<path d="M0 0 C1.65 0.33 3.3 0.66 5 1 C4.34 2.32 3.68 3.64 3 5 C1.68 5 0.36 5 -1 5 C-0.67 3.35 -0.34 1.7 0 0 Z " fill="#1D1D1D" transform="translate(396,439)"/>
<path d="M0 0 C-0.5775 0.268125 -1.155 0.53625 -1.75 0.8125 C-4.0325868 2.01719859 -5.9737942 3.40798115 -8 5 C-8.66 4.67 -9.32 4.34 -10 4 C-9.625 2.0625 -9.625 2.0625 -9 0 C-5.93109813 -1.53445094 -3.29905734 -0.54984289 0 0 Z " fill="#7D7D7D" transform="translate(107,55)"/>
<path d="M0 0 C3.5 -0.375 3.5 -0.375 7 0 C7.66 0.99 8.32 1.98 9 3 C8.05125 2.79375 7.1025 2.5875 6.125 2.375 C5.09375 2.25125 4.0625 2.1275 3 2 C2.34 2.66 1.68 3.32 1 4 C0.01 3.67 -0.98 3.34 -2 3 C-1.34 2.01 -0.68 1.02 0 0 Z " fill="#9D9D9D" transform="translate(241,319)"/>
<path d="M0 0 C0.66 0.33 1.32 0.66 2 1 C-1.625 5.875 -1.625 5.875 -5 7 C-3.75023244 3.34683329 -3.32901247 2.21934164 0 0 Z " fill="#9F9F9F" transform="translate(373,436)"/>
<path d="M0 0 C3.48539917 0.64544429 6.02819057 2.10134397 9 4 C8.67 4.66 8.34 5.32 8 6 C6.68 6 5.36 6 4 6 C3.71125 5.38125 3.4225 4.7625 3.125 4.125 C2.06279958 1.86674235 2.06279958 1.86674235 0 0 Z " fill="#9E9E9E" transform="translate(462,120)"/>
<path d="M0 0 C0.66 0.33 1.32 0.66 2 1 C0.515 3.475 0.515 3.475 -1 6 C-2.32 5.01 -3.64 4.02 -5 3 C-4.67 2.34 -4.34 1.68 -4 1 C-2.02 1.495 -2.02 1.495 0 2 C0 1.34 0 0.68 0 0 Z " fill="#999999" transform="translate(211,25)"/>
<path d="M0 0 C0.66 0.33 1.32 0.66 2 1 C0.515 3.475 0.515 3.475 -1 6 C-2.32 5.67 -3.64 5.34 -5 5 C-3.625 3.5 -3.625 3.5 -2 2 C-1.34 2 -0.68 2 0 2 C0 1.34 0 0.68 0 0 Z " fill="#A0A0A0" transform="translate(409,308)"/>
<path d="M0 0 C6.15234375 0.5859375 6.15234375 0.5859375 8 1 C8.33 1.66 8.66 2.32 9 3 C7.02 3.33 5.04 3.66 3 4 C2.67 3.01 2.34 2.02 2 1 C1.34 0.67 0.68 0.34 0 0 Z " fill="#8D8D8D" transform="translate(411,307)"/>
<path d="M0 0 C1.98953324 1.98953324 2.97746933 3.40434522 4 6 C3.67 6.99 3.34 7.98 3 9 C1.66666667 7.66666667 0.33333333 6.33333333 -1 5 C-0.625 2.375 -0.625 2.375 0 0 Z " fill="#A9A9A9" transform="translate(94,291)"/>
<path d="M0 0 C0.66 0.33 1.32 0.66 2 1 C2 1.99 2 2.98 2 4 C2.66 4 3.32 4 4 4 C3.67 4.99 3.34 5.98 3 7 C1.68 5.68 0.36 4.36 -1 3 C-0.67 2.01 -0.34 1.02 0 0 Z " fill="#202020" transform="translate(43,104)"/>
<path d="M0 0 C1.9375 0.8125 1.9375 0.8125 4 2 C4.33 2.99 4.66 3.98 5 5 C4.01 5.33 3.02 5.66 2 6 C2 5.34 2 4.68 2 4 C1.34 4 0.68 4 0 4 C0 2.68 0 1.36 0 0 Z " fill="#252525" transform="translate(428,71)"/>
<path d="M0 0 C3.71888239 0.50712033 6.73454239 1.11608215 10 3 C9.01 3.66 8.02 4.32 7 5 C6.34 4.67 5.68 4.34 5 4 C5 3.34 5 2.68 5 2 C3.35 1.67 1.7 1.34 0 1 C0 0.67 0 0.34 0 0 Z " fill="#9E9E9E" transform="translate(332,14)"/>
</svg>
