<?xml version="1.0" encoding="UTF-8"?>
<svg version="1.1" xmlns="http://www.w3.org/2000/svg" width="510" height="489">
<path d="M0 0 C5.16488012 3.64947788 9.96520657 7.36031473 14.15234375 12.11328125 C14.15234375 12.77328125 14.15234375 13.43328125 14.15234375 14.11328125 C14.81234375 14.11328125 15.47234375 14.11328125 16.15234375 14.11328125 C16.15234375 14.77328125 16.15234375 15.43328125 16.15234375 16.11328125 C16.81234375 16.11328125 17.47234375 16.11328125 18.15234375 16.11328125 C21.15234375 20.49789663 21.15234375 20.49789663 21.15234375 23.11328125 C21.81234375 23.11328125 22.47234375 23.11328125 23.15234375 23.11328125 C28.9875231 34.08341842 33.59729017 44.56907037 34.15234375 57.11328125 C35.14234375 57.19578125 36.13234375 57.27828125 37.15234375 57.36328125 C42.80335163 58.15580065 47.46735407 60.98995479 52.15234375 64.11328125 C52.15234375 64.77328125 52.15234375 65.43328125 52.15234375 66.11328125 C52.75691406 66.36464844 53.36148437 66.61601563 53.984375 66.875 C56.4634499 68.29097612 57.37112498 69.50262693 58.83984375 71.92578125 C59.46439453 72.92544922 59.46439453 72.92544922 60.1015625 73.9453125 C61.25526577 76.32562965 61.73884681 78.50961369 62.15234375 81.11328125 C63.16554688 80.69175781 64.17875 80.27023438 65.22265625 79.8359375 C66.57408555 79.28222688 67.92565558 78.72885965 69.27734375 78.17578125 C69.9425 77.89798828 70.60765625 77.62019531 71.29296875 77.33398438 C78.91950603 74.23103048 85.92707901 73.95565194 94.08984375 73.98828125 C95.05341797 73.98441406 96.01699219 73.98054688 97.00976562 73.9765625 C112.70697619 73.99802143 124.26250961 79.52005849 137.15234375 88.11328125 C137.15234375 88.77328125 137.15234375 89.43328125 137.15234375 90.11328125 C137.81234375 90.11328125 138.47234375 90.11328125 139.15234375 90.11328125 C139.15234375 90.77328125 139.15234375 91.43328125 139.15234375 92.11328125 C139.81234375 92.11328125 140.47234375 92.11328125 141.15234375 92.11328125 C141.15234375 92.77328125 141.15234375 93.43328125 141.15234375 94.11328125 C141.81234375 94.11328125 142.47234375 94.11328125 143.15234375 94.11328125 C143.81234375 95.76328125 144.47234375 97.41328125 145.15234375 99.11328125 C145.81234375 99.11328125 146.47234375 99.11328125 147.15234375 99.11328125 C156.18682492 116.39282291 160.88224745 133.60748179 156.15234375 153.11328125 C154.43943142 158.56005255 152.35268615 163.84768198 150.15234375 169.11328125 C149.49234375 169.11328125 148.83234375 169.11328125 148.15234375 169.11328125 C148.00796875 169.69078125 147.86359375 170.26828125 147.71484375 170.86328125 C147.15234375 173.11328125 147.15234375 173.11328125 146.38671875 174.83984375 C146.01900958 178.40662274 148.01071674 180.82578157 149.83984375 183.73828125 C156.08438399 194.21975354 159.05804404 204.10774149 161.15234375 216.11328125 C161.34054687 217.11746094 161.52875 218.12164062 161.72265625 219.15625 C164.92241969 241.17644023 157.67534667 263.19720216 145.40234375 281.30078125 C144.65984375 282.22890625 143.91734375 283.15703125 143.15234375 284.11328125 C142.49234375 284.11328125 141.83234375 284.11328125 141.15234375 284.11328125 C140.81203125 284.94859375 140.81203125 284.94859375 140.46484375 285.80078125 C138.77684339 288.77487713 136.68557858 290.8333699 134.15234375 293.11328125 C133.49234375 293.11328125 132.83234375 293.11328125 132.15234375 293.11328125 C132.15234375 293.77328125 132.15234375 294.43328125 132.15234375 295.11328125 C129.91466144 296.81947627 127.68983162 298.38763807 125.33984375 299.92578125 C124.65349854 300.37646973 123.96715332 300.8271582 123.26000977 301.29150391 C103.1620204 314.25234989 80.59418351 317.60899043 57.15234375 315.11328125 C56.81203125 315.99628906 56.47171875 316.87929688 56.12109375 317.7890625 C52.74427614 326.15027845 48.80031007 333.0081637 43.15234375 340.11328125 C42.61996094 340.87382812 42.08757812 341.634375 41.5390625 342.41796875 C41.08144531 342.97742188 40.62382812 343.536875 40.15234375 344.11328125 C39.49234375 344.11328125 38.83234375 344.11328125 38.15234375 344.11328125 C38.15234375 344.77328125 38.15234375 345.43328125 38.15234375 346.11328125 C20.95512396 362.35916548 2.44086252 366.77829887 -20.4921875 366.42578125 C-31.66166463 366.03369781 -40.60770153 362.68465289 -50.32421875 357.1875 C-52.72111122 355.94307516 -52.72111122 355.94307516 -54.9921875 356.25390625 C-57.17734177 357.2659777 -58.31002342 358.37921267 -59.91015625 360.17578125 C-78.45543374 379.47076145 -107.58700612 389.83134139 -134.00170898 390.40551758 C-163.37546951 390.63480584 -191.38321303 380.57937828 -212.84765625 360.11328125 C-212.84765625 359.45328125 -212.84765625 358.79328125 -212.84765625 358.11328125 C-213.48703125 357.84515625 -214.12640625 357.57703125 -214.78515625 357.30078125 C-216.84765625 356.11328125 -216.84765625 356.11328125 -217.84765625 353.11328125 C-218.50765625 353.11328125 -219.16765625 353.11328125 -219.84765625 353.11328125 C-221.96435688 350.8116596 -223.68068938 348.17197402 -225.47265625 345.61328125 C-226.27582275 344.47197754 -226.27582275 344.47197754 -227.09521484 343.30761719 C-233.15579547 334.4958639 -237.99985428 325.09470814 -241.84765625 315.11328125 C-242.87890625 315.58765625 -243.91015625 316.06203125 -244.97265625 316.55078125 C-254.82045352 321.08076799 -267.69625869 320.0975741 -277.875 317.234375 C-283.22014606 315.21853148 -288.26764584 312.53468122 -292.84765625 309.11328125 C-293.34265625 307.62828125 -293.34265625 307.62828125 -293.84765625 306.11328125 C-294.83765625 305.78328125 -295.82765625 305.45328125 -296.84765625 305.11328125 C-296.84765625 304.45328125 -296.84765625 303.79328125 -296.84765625 303.11328125 C-297.50765625 303.11328125 -298.16765625 303.11328125 -298.84765625 303.11328125 C-307.62790564 292.47845773 -308.84090724 278.33390632 -307.84765625 265.11328125 C-306.8302604 259.50439115 -304.99769287 254.37619698 -302.84765625 249.11328125 C-303.39292969 248.95472656 -303.93820312 248.79617188 -304.5 248.6328125 C-318.50160064 244.30069333 -328.75026474 236.31938526 -336.47265625 223.7890625 C-342.0261724 212.98179386 -342.38665532 199.636399 -338.84765625 188.11328125 C-333.99147579 175.70121324 -326.24186613 166.88574335 -314.84765625 160.11328125 C-313.36265625 159.12328125 -313.36265625 159.12328125 -311.84765625 158.11328125 C-312.13640625 157.57445312 -312.42515625 157.035625 -312.72265625 156.48046875 C-317.65838471 145.54645918 -318.05963447 130.19886362 -314.22265625 118.80078125 C-310.93827826 111.55890186 -306.23030407 104.94448306 -300.84765625 99.11328125 C-300.18765625 99.11328125 -299.52765625 99.11328125 -298.84765625 99.11328125 C-298.84765625 98.45328125 -298.84765625 97.79328125 -298.84765625 97.11328125 C-296.46875 95.4921875 -296.46875 95.4921875 -293.28515625 93.67578125 C-292.19332031 93.03769531 -291.10148437 92.39960937 -289.9765625 91.7421875 C-287.40185441 90.4017964 -285.49666127 89.7199108 -282.72265625 89.11328125 C-279.52820006 87.37080548 -279.52820006 87.37080548 -279.125 83.91796875 C-278.80876463 81.24458401 -278.53004808 78.58525718 -278.28515625 75.90625 C-276.95960648 64.41420688 -268.6541701 53.31700958 -259.84765625 46.11328125 C-251.80778821 40.56986905 -244.55690252 37.75657492 -234.84765625 37.11328125 C-233.93886719 37.04753906 -233.03007812 36.98179688 -232.09375 36.9140625 C-224.80713375 36.6326885 -218.70899226 38.01398942 -211.78125 40.23828125 C-208.87873318 41.25619409 -208.87873318 41.25619409 -205.84765625 41.11328125 C-205.51894531 40.36304688 -205.19023437 39.6128125 -204.8515625 38.83984375 C-197.83620697 23.74447168 -186.7698655 14.05962702 -171.53515625 7.61328125 C-155.85726507 2.56486134 -139.47486861 5.23630827 -124.84765625 12.11328125 C-117.90201332 16.1354756 -112.30382569 21.27247323 -106.84765625 27.11328125 C-106.51765625 27.44328125 -106.18765625 27.77328125 -105.84765625 28.11328125 C-105.49574219 27.64019531 -105.14382812 27.16710938 -104.78125 26.6796875 C-103.72870472 25.26988142 -102.67093011 23.86397188 -101.609375 22.4609375 C-100.46857865 20.94071886 -99.34488818 19.40744871 -98.2421875 17.859375 C-76.27566702 -12.14240475 -30.81083504 -20.41376313 0 0 Z M-62.84765625 2.11328125 C-63.72164063 2.48710937 -64.595625 2.8609375 -65.49609375 3.24609375 C-71.66556877 6.11252676 -77.64336896 9.71731943 -82.84765625 14.11328125 C-82.84765625 14.77328125 -82.84765625 15.43328125 -82.84765625 16.11328125 C-83.46640625 16.36078125 -84.08515625 16.60828125 -84.72265625 16.86328125 C-87.19834312 18.31956764 -87.79890627 19.49140631 -88.84765625 22.11328125 C-89.50765625 22.11328125 -90.16765625 22.11328125 -90.84765625 22.11328125 C-95.71372085 28.56051042 -99.41731622 35.8257847 -102.84765625 43.11328125 C-105.9689756 42.80114931 -107.43058907 42.5870465 -109.54296875 40.1875 C-110.25066406 39.00607422 -110.25066406 39.00607422 -110.97265625 37.80078125 C-113.68831514 33.30139818 -113.68831514 33.30139818 -116.84765625 29.11328125 C-117.50765625 29.11328125 -118.16765625 29.11328125 -118.84765625 29.11328125 C-118.84765625 28.45328125 -118.84765625 27.79328125 -118.84765625 27.11328125 C-121.48450372 24.7150782 -121.48450372 24.7150782 -124.84765625 24.11328125 C-124.84765625 23.45328125 -124.84765625 22.79328125 -124.84765625 22.11328125 C-138.79481767 14.60871723 -151.77605916 11.35651822 -167.59765625 15.61328125 C-176.18945088 18.58655008 -183.9434636 24.19112435 -189.84765625 31.11328125 C-189.84765625 31.77328125 -189.84765625 32.43328125 -189.84765625 33.11328125 C-190.50765625 33.11328125 -191.16765625 33.11328125 -191.84765625 33.11328125 C-196.14419286 39.32514141 -199.50430132 45.94537204 -201.84765625 53.11328125 C-205.96320308 52.5988379 -209.0908483 51.09077712 -212.6875 49.1484375 C-222.02432359 44.67419111 -233.53352347 44.54484528 -243.51171875 47.0234375 C-249.55250367 49.40151865 -254.31275292 52.47531193 -258.84765625 57.11328125 C-258.84765625 57.77328125 -258.84765625 58.43328125 -258.84765625 59.11328125 C-259.50765625 59.11328125 -260.16765625 59.11328125 -260.84765625 59.11328125 C-269.83487869 69.99255052 -270.92984223 81.38822316 -270.84765625 95.11328125 C-271.41613281 95.22285156 -271.98460937 95.33242187 -272.5703125 95.4453125 C-284.61808546 97.91922915 -294.80452834 103.79628349 -301.84765625 114.11328125 C-307.98833356 124.95573129 -309.26881352 136.88739775 -306.10546875 148.94140625 C-305.41862061 151.02157491 -304.64331122 153.07225327 -303.84765625 155.11328125 C-303.18765625 155.11328125 -302.52765625 155.11328125 -301.84765625 155.11328125 C-301.51765625 158.41328125 -301.18765625 161.71328125 -300.84765625 165.11328125 C-302.13736328 165.25636719 -302.13736328 165.25636719 -303.453125 165.40234375 C-307.23100751 166.19356886 -309.84380308 167.53068299 -313.16015625 169.48828125 C-314.73216797 170.39707031 -314.73216797 170.39707031 -316.3359375 171.32421875 C-319.11440949 172.93146932 -319.11440949 172.93146932 -319.84765625 176.11328125 C-320.50765625 176.11328125 -321.16765625 176.11328125 -321.84765625 176.11328125 C-324.15786554 178.90533419 -325.9746452 182.01707931 -327.84765625 185.11328125 C-328.481875 186.0878125 -328.481875 186.0878125 -329.12890625 187.08203125 C-333.2447747 194.49059446 -333.10054128 203.90854742 -331.84765625 212.11328125 C-329.70324431 218.58802182 -326.3572134 224.00794927 -321.84765625 229.11328125 C-321.18765625 229.11328125 -320.52765625 229.11328125 -319.84765625 229.11328125 C-319.51765625 230.10328125 -319.18765625 231.09328125 -318.84765625 232.11328125 C-316.70358767 233.72990944 -316.70358767 233.72990944 -314.09765625 235.17578125 C-313.2365625 235.68238281 -312.37546875 236.18898437 -311.48828125 236.7109375 C-306.50019667 239.35993508 -302.15302406 240.50323313 -296.53515625 241.23828125 C-294.65376953 241.48964844 -294.65376953 241.48964844 -292.734375 241.74609375 C-291.78175781 241.86726562 -290.82914062 241.9884375 -289.84765625 242.11328125 C-290.84307488 246.69220693 -292.31309904 250.03189926 -294.84765625 253.98828125 C-300.31848892 262.82167448 -300.93129346 272.4026167 -299.28515625 282.55078125 C-297.38298743 290.2002173 -292.03526527 298.30069646 -285.84765625 303.11328125 C-274.50450676 309.74261091 -265.03312837 312.63400241 -252.1328125 309.44140625 C-247.36072628 308.08196617 -247.36072628 308.08196617 -242.87109375 306.015625 C-240.41326732 304.91956727 -238.50961529 304.96539464 -235.84765625 305.11328125 C-235.44933594 306.18707031 -235.05101562 307.26085937 -234.640625 308.3671875 C-234.10555843 309.80341883 -233.57039711 311.23961487 -233.03515625 312.67578125 C-232.77412109 313.38025391 -232.51308594 314.08472656 -232.24414062 314.81054688 C-230.56687584 319.30395995 -228.7704381 323.71917619 -226.84765625 328.11328125 C-226.18765625 328.11328125 -225.52765625 328.11328125 -224.84765625 328.11328125 C-224.77160156 328.63921875 -224.69554687 329.16515625 -224.6171875 329.70703125 C-218.95817894 347.40220524 -198.46603009 362.09129796 -183.04907227 370.32861328 C-160.3482588 381.99136603 -137.67907632 384.07714976 -112.84765625 379.11328125 C-111.3471875 378.82324219 -111.3471875 378.82324219 -109.81640625 378.52734375 C-95.51433109 375.2102962 -78.58168416 366.06774289 -67.84765625 356.11328125 C-67.84765625 355.45328125 -67.84765625 354.79328125 -67.84765625 354.11328125 C-66.85765625 353.78328125 -65.86765625 353.45328125 -64.84765625 353.11328125 C-64.84765625 352.45328125 -64.84765625 351.79328125 -64.84765625 351.11328125 C-64.18765625 351.11328125 -63.52765625 351.11328125 -62.84765625 351.11328125 C-62.07421875 349.87578125 -62.07421875 349.87578125 -61.28515625 348.61328125 C-58.84765625 346.11328125 -58.84765625 346.11328125 -56.5859375 345.78125 C-54.32180338 345.79902185 -52.10102417 345.89661126 -49.84765625 346.11328125 C-49.84765625 346.77328125 -49.84765625 347.43328125 -49.84765625 348.11328125 C-32.97856569 357.38201232 -14.71967514 361.8771853 4.27734375 356.48828125 C10.23416674 354.31442766 15.72640471 351.37406192 21.15234375 348.11328125 C22.08046875 347.59894531 23.00859375 347.08460938 23.96484375 346.5546875 C24.68671875 346.07902344 25.40859375 345.60335938 26.15234375 345.11328125 C26.15234375 344.45328125 26.15234375 343.79328125 26.15234375 343.11328125 C26.7246875 342.8709375 27.29703125 342.62859375 27.88671875 342.37890625 C38.15910576 336.64053833 45.84010965 322.27452105 49.08984375 311.30078125 C49.28449219 310.51058594 49.47914063 309.72039062 49.6796875 308.90625 C50.15234375 307.11328125 50.15234375 307.11328125 51.15234375 306.11328125 C55.07413342 305.97804712 58.60456938 306.03255661 62.4921875 306.60546875 C83.68452993 309.54570836 101.8997046 303.56902533 120.15234375 293.11328125 C120.15234375 292.45328125 120.15234375 291.79328125 120.15234375 291.11328125 C121.23515625 290.74203125 121.23515625 290.74203125 122.33984375 290.36328125 C125.42840957 288.99058533 127.66245793 287.38974829 130.15234375 285.11328125 C130.15234375 284.45328125 130.15234375 283.79328125 130.15234375 283.11328125 C130.81234375 283.11328125 131.47234375 283.11328125 132.15234375 283.11328125 C133.8657684 281.12821611 135.45513506 279.14323976 137.02734375 277.05078125 C137.46175781 276.48939453 137.89617187 275.92800781 138.34375 275.34960938 C150.33387894 259.59681235 154.88626004 239.68828358 153.15234375 220.11328125 C151.83594541 210.82027213 149.75894655 201.35746038 145.15234375 193.11328125 C144.57871094 192.08074219 144.00507813 191.04820312 143.4140625 189.984375 C140.25947724 184.19708145 140.25947724 184.19708145 136.15234375 179.11328125 C135.76564778 175.72619726 135.76967918 173.76722963 137.5078125 170.796875 C138.11238281 170.05566406 138.71695312 169.31445312 139.33984375 168.55078125 C145.33543786 160.47557944 148.89837267 151.19956148 149.15234375 141.11328125 C149.19101562 140.3140625 149.2296875 139.51484375 149.26953125 138.69140625 C149.67778455 124.08501027 144.80962725 109.18185879 135.15234375 98.11328125 C122.50418758 86.16332479 106.95818548 81.73428109 90.03125 81.9609375 C79.11388724 82.3897161 70.30965203 86.54486978 61.1953125 92.35546875 C59.15234375 93.11328125 59.15234375 93.11328125 56.953125 92.5390625 C54.55360407 90.63922489 54.51989493 89.42591776 54.15234375 86.42578125 C52.84931996 78.74014941 49.69924212 73.68123709 43.72265625 68.625 C38.67266289 65.65486713 32.88138473 64.95815387 27.15234375 64.11328125 C26.91451172 62.62441406 26.91451172 62.62441406 26.671875 61.10546875 C24.493439 48.15043666 21.44992466 34.67383878 13.15234375 24.11328125 C12.49234375 24.11328125 11.83234375 24.11328125 11.15234375 24.11328125 C10.15234375 22.11328125 9.15234375 20.11328125 8.15234375 18.11328125 C7.49234375 18.11328125 6.83234375 18.11328125 6.15234375 18.11328125 C5.90484375 17.51515625 5.65734375 16.91703125 5.40234375 16.30078125 C3.9716185 13.79701206 2.58318555 12.63255737 0.15234375 11.11328125 C-0.50765625 11.11328125 -1.16765625 11.11328125 -1.84765625 11.11328125 C-1.84765625 10.45328125 -1.84765625 9.79328125 -1.84765625 9.11328125 C-7.31329104 5.09245565 -13.37614429 2.1045157 -19.84765625 0.11328125 C-20.85183594 -0.23476562 -21.85601562 -0.5828125 -22.890625 -0.94140625 C-35.32012447 -4.43756372 -51.13250201 -3.05219021 -62.84765625 2.11328125 Z " fill="#494949" transform="translate(346.84765625,11.88671875)"/>
<path d="M0 0 C0 0.66 0 1.32 0 2 C0.66 2 1.32 2 2 2 C2 2.66 2 3.32 2 4 C2.99 4.33 3.98 4.66 5 5 C10.08794661 13.17155062 12.02385225 21.91065622 9.875 31.375 C8.54067078 35.8557824 6.9785381 39.34065319 4 43 C3.59136719 43.56074219 3.18273437 44.12148438 2.76171875 44.69921875 C-2.15888195 51.08906924 -9.33069454 55.5617815 -17 58 C-26.91046112 58.95389443 -35.61984307 58.97679117 -44 53 C-44.96292969 52.33097656 -44.96292969 52.33097656 -45.9453125 51.6484375 C-52.34486668 46.68947561 -56.96482687 39.82758896 -59 32 C-60.37811789 20.15541826 -59.85934197 10.04403645 -53 0 C-52.34 0 -51.68 0 -51 0 C-51 -0.66 -51 -1.32 -51 -2 C-37.56394841 -15.88391997 -14.05823815 -8.55117242 0 0 Z M-46.5 6.1875 C-50.80544954 11.86728796 -51.62085842 19.0463857 -51 26 C-49.13797845 33.37156475 -46.39989328 39.09258562 -40.625 44.1875 C-39.49964844 45.19876953 -39.49964844 45.19876953 -38.3515625 46.23046875 C-32.911886 50.32378014 -27.60429449 50.77871532 -21 50 C-12.04030758 47.53090984 -4.48723651 41.20110512 0.08984375 33.1640625 C2.74752737 26.84493493 2.62651357 20.44078108 0.12890625 14.1015625 C-3.88496811 6.62936733 -10.12418385 3.39646394 -18 1 C-28.29581247 -1.8967318 -38.55648149 -2.18434549 -46.5 6.1875 Z " fill="#4F4F4F" transform="translate(105,379)"/>
<path d="M0 0 C0 0.66 0 1.32 0 2 C0.66 2 1.32 2 2 2 C2 2.66 2 3.32 2 4 C2.66 4 3.32 4 4 4 C4 4.66 4 5.32 4 6 C4.66 6 5.32 6 6 6 C6.99 8.475 6.99 8.475 8 11 C8.66 11 9.32 11 10 11 C19.03448117 28.27954166 23.7299037 45.49420054 19 65 C17.28708767 70.4467713 15.2003424 75.73440073 13 81 C12.34 81 11.68 81 11 81 C10.896875 81.639375 10.79375 82.27875 10.6875 82.9375 C10.460625 83.618125 10.23375 84.29875 10 85 C8.515 85.495 8.515 85.495 7 86 C6.67 87.65 6.34 89.3 6 91 C1.25 90.125 1.25 90.125 -1 89 C-1 88.01 -1 87.02 -1 86 C-0.360625 85.38125 0.27875 84.7625 0.9375 84.125 C3.40407936 81.58367581 3.38953179 80.43388368 4 77 C4.61606286 75.50818859 5.26535343 74.02989691 5.9375 72.5625 C12.85038215 57.35916861 12.3359278 41.94734535 6.75 26.375 C4.80637438 21.4608182 2.55508369 17.50938057 -0.86328125 13.48828125 C-2 12 -2 12 -2 10 C-2.85851562 9.59394531 -2.85851562 9.59394531 -3.734375 9.1796875 C-6.04617669 7.97595627 -8.10993316 6.61072985 -10.25 5.125 C-14.35173718 2.35902591 -18.50410824 0.05441412 -23 -2 C-23.845625 -2.391875 -24.69125 -2.78375 -25.5625 -3.1875 C-31.15977996 -5.05325999 -37.02043054 -5.1931416 -42.875 -5.1875 C-43.57608887 -5.18814453 -44.27717773 -5.18878906 -44.99951172 -5.18945312 C-49.59462523 -5.14266187 -53.74021085 -4.64998092 -58.16015625 -3.4453125 C-60.78596862 -2.80976556 -63.31608805 -2.86236349 -66 -3 C-66 -3.66 -66 -4.32 -66 -5 C-66.66 -5.33 -67.32 -5.66 -68 -6 C-66.63093814 -10.64720444 -66.63093814 -10.64720444 -63.953125 -12.14453125 C-40.59524468 -17.916493 -19.71309479 -13.14206319 0 0 Z " fill="#4C4C4C" transform="translate(484,100)"/>
<path d="M0 0 C0.66 0.99 1.32 1.98 2 3 C0.625 4.5 0.625 4.5 -1 6 C-1.66 6 -2.32 6 -3 6 C-3 6.99 -3 7.98 -3 9 C-0.69 9.33 1.62 9.66 4 10 C4.66 8.68 5.32 7.36 6 6 C7.45183405 8.90366809 8.90262487 11.80778062 10.34765625 14.71484375 C11.33417505 16.67622036 12.336541 18.62993571 13.37109375 20.56640625 C23.2765918 39.29736362 26.2925817 62.55522069 20.41308594 83.04541016 C16.71943159 94.94628921 11.83866725 106.20166594 4 116 C3.34 116 2.68 116 2 116 C1.773125 116.556875 1.54625 117.11375 1.3125 117.6875 C-0.37550036 120.66159588 -2.46676517 122.72008865 -5 125 C-5.66 125 -6.32 125 -7 125 C-7 125.66 -7 126.32 -7 127 C-9.34311421 128.73795876 -11.68172212 130.35211464 -14.125 131.9375 C-14.79015625 132.38029297 -15.4553125 132.82308594 -16.140625 133.27929688 C-19.96436847 135.79472027 -23.76164645 138.23709062 -28 140 C-28.99 139.67 -29.98 139.34 -31 139 C-31 138.34 -31 137.68 -31 137 C-31.66 136.67 -32.32 136.34 -33 136 C-33.625 133.9375 -33.625 133.9375 -34 132 C-31.87767021 130.82823482 -29.75242209 129.66245215 -27.625 128.5 C-27.02171875 128.16613281 -26.4184375 127.83226562 -25.796875 127.48828125 C-21.2265625 125 -21.2265625 125 -19 125 C-19 124.34 -19 123.68 -19 123 C-17.3203125 121.4921875 -17.3203125 121.4921875 -15.125 119.875 C-14.40570313 119.33617187 -13.68640625 118.79734375 -12.9453125 118.2421875 C-11 117 -11 117 -9 117 C-9 116.34 -9 115.68 -9 115 C-8.34 115 -7.68 115 -7 115 C-6.75121094 114.45214844 -6.50242187 113.90429688 -6.24609375 113.33984375 C-4.7537544 110.53761406 -2.95869692 108.10841803 -1.0625 105.5625 C10.7720943 89.65769009 15.44812191 69.2823215 12.66308594 49.62158203 C11.16663733 41.0925194 9.25153634 32.60873655 5 25 C4.42636719 23.96746094 3.85273438 22.93492187 3.26171875 21.87109375 C0.10713349 16.0838002 0.10713349 16.0838002 -4 11 C-4.52981019 7.02642355 -4.31881474 5.45829619 -2 2.125 C-1.34 1.42375 -0.68 0.7225 0 0 Z " fill="#4C4C4C" transform="translate(486,180)"/>
<path d="M0 0 C0.66 0.66 1.32 1.32 2 2 C2.99 1.67 3.98 1.34 5 1 C4.84402344 1.78117188 4.68804687 2.56234375 4.52734375 3.3671875 C2.65816518 16.24375096 2.18044479 29.04541574 10 40 C10.45632812 40.680625 10.91265625 41.36125 11.3828125 42.0625 C17.45208614 50.10862277 27.44245039 54.62192745 37.1875 56.0625 C42.79964851 56.89982425 42.79964851 56.89982425 45 58 C45.62944565 63.16145433 44.33558088 65.26470947 41.30859375 69.140625 C35.54486008 77.33028837 35.89793473 86.96518089 36.0390625 96.51953125 C36.08374313 101.47163416 35.85122472 106.11875822 35 111 C34.01 110.67 33.02 110.34 32 110 C32 109.34 32 108.68 32 108 C31.34 108 30.68 108 30 108 C24.75727772 93.27044694 26.16963322 79.2717239 32 65 C31.18208984 64.76216797 31.18208984 64.76216797 30.34765625 64.51953125 C16.34605561 60.18741208 6.09739151 52.20610401 -1.625 39.67578125 C-6.94777327 29.31754349 -7.14203102 17.34479512 -4.7109375 6.140625 C-3.77594828 3.32538274 -2.37684083 1.74301661 0 0 Z " fill="#494949" transform="translate(12,196)"/>
<path d="M0 0 C7.74157995 5.50269115 7.74157995 5.50269115 8.9765625 7.97265625 C8.2134375 7.74578125 7.4503125 7.51890625 6.6640625 7.28515625 C5.7771875 7.18203125 4.8903125 7.07890625 3.9765625 6.97265625 C2.1410826 8.306442 2.1410826 8.306442 0.9765625 9.97265625 C1.9665625 11.29265625 2.9565625 12.61265625 3.9765625 13.97265625 C1.9765625 12.97265625 -0.0234375 11.97265625 -2.0234375 10.97265625 C-2.0234375 10.31265625 -2.0234375 9.65265625 -2.0234375 8.97265625 C-2.6628125 8.74578125 -3.3021875 8.51890625 -3.9609375 8.28515625 C-6.54224906 7.17887987 -8.74729231 5.96635949 -11.1484375 4.53515625 C-19.76548762 -0.2803913 -28.63663987 -1.56794681 -38.3984375 -1.46484375 C-39.90506958 -1.45457153 -39.90506958 -1.45457153 -41.44213867 -1.4440918 C-49.27851051 -1.27509807 -55.79677202 -0.21496775 -63.0234375 2.97265625 C-63.920625 3.35808594 -64.8178125 3.74351563 -65.7421875 4.140625 C-70.78306282 6.48645403 -75.12008881 9.329973 -79.4296875 12.8359375 C-81.0234375 13.97265625 -81.0234375 13.97265625 -83.0234375 13.97265625 C-83.0234375 14.63265625 -83.0234375 15.29265625 -83.0234375 15.97265625 C-84.67346578 17.32652561 -86.3408762 18.65943767 -88.0234375 19.97265625 C-88.3534375 20.63265625 -88.6834375 21.29265625 -89.0234375 21.97265625 C-89.6834375 21.64265625 -90.3434375 21.31265625 -91.0234375 20.97265625 C-90.6934375 19.65265625 -90.3634375 18.33265625 -90.0234375 16.97265625 C-89.3634375 16.97265625 -88.7034375 16.97265625 -88.0234375 16.97265625 C-88.3534375 15.98265625 -88.6834375 14.99265625 -89.0234375 13.97265625 C-91.0034375 14.30265625 -92.9834375 14.63265625 -95.0234375 14.97265625 C-91.03894091 5.39290912 -78.11147611 -0.77972427 -69.0234375 -5.02734375 C-46.02676399 -14.38684467 -21.01311228 -14.09018769 0 0 Z " fill="#494949" transform="translate(347.0234375,12.02734375)"/>
<path d="M0 0 C0.66 0.33 1.32 0.66 2 1 C2 1.66 2 2.32 2 3 C2.66 3 3.32 3 4 3 C7.03434715 8.09336843 9.47735237 12.95421952 8 19 C5.40930251 24.6352398 1.73195561 29.16571944 -3.72265625 32.19140625 C-9.49109438 34.23954809 -15.09967507 33.77301353 -20.6875 31.5 C-21.450625 31.005 -22.21375 30.51 -23 30 C-23 29.34 -23 28.68 -23 28 C-23.66 28 -24.32 28 -25 28 C-29.49573506 22.14192099 -30.62040693 17.32080182 -30 10 C-28.18316087 4.72721688 -25.76926027 1.05721812 -21 -2 C-13.68599457 -4.43800181 -6.96322992 -2.84123335 0 0 Z M-18 6 C-18 6.66 -18 7.32 -18 8 C-18.66 8 -19.32 8 -20 8 C-21.14505345 14.02966487 -21.14505345 14.02966487 -19.8125 19.875 C-17.2734438 22.89680676 -17.2734438 22.89680676 -14 25 C-9.79374114 24.77861795 -7.52432557 24.34955038 -4 22 C-4 21.34 -4 20.68 -4 20 C-3.34 20 -2.68 20 -2 20 C-1.11494307 16.01284083 -1.11494307 16.01284083 -1 12 C-3.15754261 9.25933776 -4.88793005 7.55603498 -8 6 C-9.70702735 5.93003986 -11.41668003 5.91559846 -13.125 5.9375 C-14.03507812 5.94652344 -14.94515625 5.95554687 -15.8828125 5.96484375 C-16.58148438 5.97644531 -17.28015625 5.98804688 -18 6 Z " fill="#4E4E4E" transform="translate(45,452)"/>
<path d="M0 0 C0.99 2.97 0.99 2.97 2 6 C-3.67745237 12.62369443 -11.84124232 14.8215562 -20 17 C-20.59216309 17.17273438 -21.18432617 17.34546875 -21.79443359 17.5234375 C-34.99821108 20.37641222 -51.56365318 19.1922194 -64 14 C-64.82628906 13.67644531 -65.65257812 13.35289062 -66.50390625 13.01953125 C-70.77824461 11.14616292 -73.16630814 9.31456909 -75 5 C-75.6875 2.6875 -75.6875 2.6875 -76 1 C-73.0625 1.375 -73.0625 1.375 -70 2 C-69.67 2.66 -69.34 3.32 -69 4 C-67.989375 3.938125 -66.97875 3.87625 -65.9375 3.8125 C-61.57383785 4.02029344 -58.94993716 5.19827428 -55 7 C-40.53319037 11.34949832 -23.82142296 10.64248494 -10.35546875 3.62109375 C-8.85023077 2.76755816 -7.36163382 1.88303729 -5.90234375 0.953125 C-4 0 -4 0 0 0 Z M-73 4 C-73 4.66 -73 5.32 -73 6 C-72.34 5.67 -71.68 5.34 -71 5 C-71.66 4.67 -72.32 4.34 -73 4 Z " fill="#484848" transform="translate(370,360)"/>
<path d="M0 0 C6.75 -0.125 6.75 -0.125 9 1 C9 1.66 9 2.32 9 3 C9.94875 3.28875 10.8975 3.5775 11.875 3.875 C15 5 15 5 17 7 C15.68 7.33 14.36 7.66 13 8 C12.505 6.515 12.505 6.515 12 5 C10.68 5.33 9.36 5.66 8 6 C8 8.46278801 8.85452863 9.85224119 10 12 C9.01 11.67 8.02 11.34 7 11 C3.1366514 10.59293678 3.1366514 10.59293678 1.140625 12.43359375 C-0.18158745 13.83502967 -1.487673 15.25177751 -2.78125 16.6796875 C-9.81779725 24.03833022 -19.15038288 29.13468301 -28 34 C-28.71285156 34.41507812 -29.42570312 34.83015625 -30.16015625 35.2578125 C-32 36 -32 36 -35 35 C-34.01 34.01 -33.02 33.02 -32 32 C-32.99 31.67 -33.98 31.34 -35 31 C-34.01 29.515 -34.01 29.515 -33 28 C-33.33 27.34 -33.66 26.68 -34 26 C-33.09378906 25.50371094 -32.18757812 25.00742187 -31.25390625 24.49609375 C-24.65115991 20.82991794 -18.47410341 17.13608708 -12.671875 12.25 C-11 11 -11 11 -9 11 C-9 10.34 -9 9.68 -9 9 C-7.625 7.375 -7.625 7.375 -6 6 C-5.34 6 -4.68 6 -4 6 C-3.67 5.01 -3.34 4.02 -3 3 C-2.34 3 -1.68 3 -1 3 C-0.67 2.01 -0.34 1.02 0 0 Z M5 7 C6 9 6 9 6 9 Z M9 7 C9.66 7.66 10.32 8.32 11 9 C10.34 9 9.68 9 9 9 C9 8.34 9 7.68 9 7 Z " fill="#414141" transform="translate(288,357)"/>
<path d="M0 0 C0 0.99 0 1.98 0 3 C-0.66 3 -1.32 3 -2 3 C-2.04125 3.969375 -2.0825 4.93875 -2.125 5.9375 C-2.73446076 10.273378 -4.8668046 13.08783048 -7.38671875 16.58203125 C-9.58390536 19.87515113 -11.09496089 23.39023683 -12.62890625 27.03125 C-14 29 -14 29 -16.65234375 29.78125 C-17.42707031 29.8534375 -18.20179688 29.925625 -19 30 C-22.85764352 25.31571859 -26.44703168 20.53143135 -29 15 C-29.66 15 -30.32 15 -31 15 C-31 14.34 -31 13.68 -31 13 C-31.61875 12.690625 -32.2375 12.38125 -32.875 12.0625 C-34.25 11.375 -35.625 10.6875 -37 10 C-37 9.34 -37 8.68 -37 8 C-37.66 8 -38.32 8 -39 8 C-38.625 6.0625 -38.625 6.0625 -38 4 C-36.66666667 3.33333333 -35.33333333 2.66666667 -34 2 C-28.22436464 4.71914868 -23.22284322 8.23227378 -19 13 C-18.67 13.33 -18.34 13.66 -18 14 C-17.61328125 13.48050781 -17.2265625 12.96101563 -16.828125 12.42578125 C-15.7503336 10.98250119 -14.66809606 9.54253342 -13.58203125 8.10546875 C-12.34626283 6.46082881 -11.13664282 4.79653241 -9.9375 3.125 C-6.82151849 -0.29252811 -4.43937695 -1.47979232 0 0 Z " fill="#4B4B4B" transform="translate(259,26)"/>
<path d="M0 0 C0.42410156 0.38671875 0.84820312 0.7734375 1.28515625 1.171875 C7.98308164 7.11904392 14.12059666 11.40518926 23.27734375 11.2734375 C30.83049946 10.51487093 35.98466245 6.57115034 41.17578125 1.29296875 C43 0 43 0 45.1484375 0.1875 C47 1 47 1 48.3125 2.8125 C49.14156359 5.45042961 48.97804597 6.4320271 48 9 C40.44824795 16.68660477 32.1887342 20.36759729 21.5625 20.5625 C10.69921135 20.46935915 3.82681994 16.31637516 -4 9 C-3.67 8.34 -3.34 7.68 -3 7 C-1.68 8.32 -0.36 9.64 1 11 C2.32 10.34 3.64 9.68 5 9 C3.99554337 6.75928906 3.12245015 5.12245015 1.375 3.375 C0.92125 2.92125 0.4675 2.4675 0 2 C0 1.34 0 0.68 0 0 Z " fill="#545454" transform="translate(58,417)"/>
<path d="M0 0 C1.32 0.66 2.64 1.32 4 2 C3.56968829 4.92611963 3.034198 6.94300333 1.5 9.5 C-2.43858014 18.69002032 -1.07998006 27.55302953 1.6015625 36.90625 C3.19020687 40.42079284 5.13782415 42.45161752 8 45 C7.34 46.32 6.68 47.64 6 49 C1.07166435 49 0.07888224 47.81008593 -3.390625 44.64453125 C-9.62887137 38.27001251 -10.36239764 30.60639094 -10.375 22.125 C-10.39949219 21.26519531 -10.42398438 20.40539062 -10.44921875 19.51953125 C-10.47626943 13.57739963 -9.4865754 8.90997644 -6 4 C-3.3125 2.0625 -3.3125 2.0625 -1 1 C-0.67 0.67 -0.34 0.34 0 0 Z " fill="#4C4C4C" transform="translate(56,379)"/>
<path d="M0 0 C3.40312738 1.05875074 6.01353231 2.00902154 9 4 C9 4.66 9 5.32 9 6 C9.66 6 10.32 6 11 6 C11 6.66 11 7.32 11 8 C11.99 8.33 12.98 8.66 14 9 C19.08794661 17.17155062 21.02385225 25.91065622 18.875 35.375 C17.53689226 39.88667301 16.13561548 43.47243259 13 47 C12.01 47 11.02 47 10 47 C9.566875 46.0409375 9.566875 46.0409375 9.125 45.0625 C8.17176549 42.84793921 8.17176549 42.84793921 6 42 C6.28875 41.319375 6.5775 40.63875 6.875 39.9375 C9.13500758 34.03636909 10.34630597 28.64597466 10.5 22.3125 C10.5515625 21.02988281 10.603125 19.74726563 10.65625 18.42578125 C10.33657638 14.75388703 10.33657638 14.75388703 7.09375 12.66796875 C6.0728125 12.11753906 5.051875 11.56710937 4 11 C1.41423292 8.41423292 1.50867467 6.56072267 1 3 C0.67 2.01 0.34 1.02 0 0 Z " fill="#4B4B4B" transform="translate(96,375)"/>
<path d="M0 0 C1.0209375 0.9590625 1.0209375 0.9590625 2.0625 1.9375 C1.423125 2.040625 0.78375 2.14375 0.125 2.25 C-0.8959375 2.5903125 -0.8959375 2.5903125 -1.9375 2.9375 C-2.2675 3.9275 -2.5975 4.9175 -2.9375 5.9375 C-4.04822876 5.92178955 -4.04822876 5.92178955 -5.18139648 5.90576172 C-8.57922895 5.86384919 -11.97700675 5.83806255 -15.375 5.8125 C-16.53966797 5.79574219 -17.70433594 5.77898437 -18.90429688 5.76171875 C-24.86558657 5.72813402 -30.32893896 5.91990755 -36.09765625 7.4921875 C-38.72346862 8.12773444 -41.25358805 8.07513651 -43.9375 7.9375 C-43.9375 7.2775 -43.9375 6.6175 -43.9375 5.9375 C-44.5975 5.6075 -45.2575 5.2775 -45.9375 4.9375 C-44.56843814 0.29029556 -44.56843814 0.29029556 -41.890625 -1.20703125 C-30.66366253 -3.981324 -9.94000803 -6.97915458 0 0 Z " fill="#444444" transform="translate(461.9375,89.0625)"/>
<path d="M0 0 C1.66611905 -0.042721 3.33382885 -0.04063832 5 0 C6 1 6 1 6.1875 4.25 C6.00952396 7.80952088 5.42796683 9.80807414 4 13 C2.41085624 18.69899831 2.95253899 24.66188984 3.0390625 30.51953125 C3.08374313 35.47163416 2.85122472 40.11875822 2 45 C1.01 44.67 0.02 44.34 -1 44 C-1 43.34 -1 42.68 -1 42 C-1.66 42 -2.32 42 -3 42 C-7.46841818 29.44587273 -7.46841818 16.55412727 -3 4 C-2.34 4 -1.68 4 -1 4 C-0.67 2.68 -0.34 1.36 0 0 Z " fill="#3F3F3F" transform="translate(45,262)"/>
<path d="M0 0 C0.99 0.33 1.98 0.66 3 1 C3 1.66 3 2.32 3 3 C3.60457031 3.25136719 4.20914062 3.50273438 4.83203125 3.76171875 C8.48406272 5.84765384 10.13149366 9.32620746 12 13 C12.8125 16 12.8125 16 13 18 C15.97 17.01 18.94 16.02 22 15 C21.67 16.32 21.34 17.64 21 19 C21.33 19.99 21.66 20.98 22 22 C22.99 22.33 23.98 22.66 25 23 C24.00419922 23.48919922 24.00419922 23.48919922 22.98828125 23.98828125 C18.55939564 26.18009471 14.18006181 28.35262752 10 31 C7.625 30.125 7.625 30.125 5 28 C4.28021504 25.53595088 3.91355885 23.097486 3.515625 20.5625 C2.25905713 14.31773844 -1.89410042 9.67616341 -6 5 C-3.69 5.33 -1.38 5.66 1 6 C1.33 4.68 1.66 3.36 2 2 C1.34 2 0.68 2 0 2 C0 1.34 0 0.68 0 0 Z " fill="#565656" transform="translate(396,75)"/>
<path d="M0 0 C0.08703823 3.43734063 0.14040272 6.87439837 0.1875 10.3125 C0.21263672 11.28896484 0.23777344 12.26542969 0.26367188 13.27148438 C0.27333984 14.20927734 0.28300781 15.14707031 0.29296875 16.11328125 C0.3086792 16.97735596 0.32438965 17.84143066 0.34057617 18.73168945 C-0.07480508 21.49821793 -0.80091289 22.32545379 -3 24 C-5.59375 24.9140625 -5.59375 24.9140625 -8.5 25.625 C-9.4590625 25.86476563 -10.418125 26.10453125 -11.40625 26.3515625 C-12.2621875 26.56554687 -13.118125 26.77953125 -14 27 C-14.99 27.33 -15.98 27.66 -17 28 C-17 26.35 -17 24.7 -17 23 C-18.65 22.67 -20.3 22.34 -22 22 C-20.540099 19.08019801 -18.5167734 18.98685205 -15.5 17.875 C-11.54112086 16.3230143 -11.54112086 16.3230143 -9.12109375 13.10546875 C-8.93626131 11.0487163 -8.95155214 9.06307153 -9 7 C-7.67636364 1.50181818 -7.67636364 1.50181818 -5.0625 -0.4375 C-3 -1 -3 -1 0 0 Z " fill="#494949" transform="translate(77,84)"/>
<path d="M0 0 C2.9941078 0.4536527 5.30329895 1.14236482 8.0625 2.4375 C12.34382898 4.37925319 16.80216167 4.90896666 21.42578125 5.5703125 C24 6 24 6 26 7 C26.64165788 12.26159459 25.20577001 14.68592849 22.09375 18.6796875 C21.7328125 19.11539062 21.371875 19.55109375 21 20 C20.773125 19.360625 20.54625 18.72125 20.3125 18.0625 C19.14749104 15.72806339 19.14749104 15.72806339 16.375 15.25 C15.59125 15.1675 14.8075 15.085 14 15 C13.34 16.32 12.68 17.64 12 19 C12.33 17.35 12.66 15.7 13 14 C12.39671875 13.80664062 11.7934375 13.61328125 11.171875 13.4140625 C10.37265625 13.15367187 9.5734375 12.89328125 8.75 12.625 C7.96109375 12.36976563 7.1721875 12.11453125 6.359375 11.8515625 C4.09774581 11.03527912 2.04789104 10.26339826 0 9 C-0.99184231 5.41410857 -1.18429132 3.55287397 0 0 Z " fill="#525252" transform="translate(31,247)"/>
<path d="M0 0 C-0.99 0.33 -1.98 0.66 -3 1 C-2.67 2.98 -2.34 4.96 -2 7 C-1.01 7.33 -0.02 7.66 1 8 C-0.155 8.53625 -1.31 9.0725 -2.5 9.625 C-6.49665542 11.60199325 -9.86960153 14.0384841 -13.3359375 16.828125 C-15 18 -15 18 -17 18 C-17 18.66 -17 19.32 -17 20 C-18.65002828 21.35386936 -20.3174387 22.68678142 -22 24 C-22.33 24.66 -22.66 25.32 -23 26 C-23.66 25.67 -24.32 25.34 -25 25 C-24.67 23.68 -24.34 22.36 -24 21 C-23.34 21 -22.68 21 -22 21 C-22.33 20.01 -22.66 19.02 -23 18 C-24.98 18.33 -26.96 18.66 -29 19 C-25.71701134 11.10685706 -16.66344788 6.59172068 -9.5625 2.4375 C-8.65806152 1.89947754 -8.65806152 1.89947754 -7.73535156 1.35058594 C-3.36509959 -1.12169986 -3.36509959 -1.12169986 0 0 Z " fill="#4D4D4D" transform="translate(281,8)"/>
<path d="M0 0 C0.33 0 0.66 0 1 0 C1.185625 1.258125 1.37125 2.51625 1.5625 3.8125 C2.71433997 9.12609754 5.31123595 13.06713245 8.34375 17.51953125 C10 20 10 20 11.078125 22.2578125 C12.45251968 24.8551855 14.27061744 25.06952867 17 26 C19.00751815 26.98482022 21.00934459 27.98152514 23 29 C22.01 29.33 21.02 29.66 20 30 C19.34 29.67 18.68 29.34 18 29 C17.67 29.66 17.34 30.32 17 31 C16.33333333 32.33333333 15.66666667 33.66666667 15 35 C11.56072421 33.7580393 8.74792181 32.44259716 6 30 C6 29.34 6 28.68 6 28 C5.01 27.67 4.02 27.34 3 27 C3 26.34 3 25.68 3 25 C2.34 25 1.68 25 1 25 C-0.32421875 23.35546875 -0.32421875 23.35546875 -1.6875 21.1875 C-2.14511719 20.47980469 -2.60273437 19.77210938 -3.07421875 19.04296875 C-4 17 -4 17 -3 14 C-2.34 14.66 -1.68 15.32 -1 16 C-0.22750855 10.59255982 0.09752461 5.46137814 0 0 Z " fill="#575757" transform="translate(47,290)"/>
<path d="M0 0 C2.050863 3.07629451 3.24138277 5.92826431 4.5625 9.375 C4.99691406 10.49648438 5.43132812 11.61796875 5.87890625 12.7734375 C6.8372933 15.53172219 7.52108842 18.12653052 8 21 C8.66 21 9.32 21 10 21 C10.66 22.98 11.32 24.96 12 27 C10.02 27.33 8.04 27.66 6 28 C5.67 29.32 5.34 30.64 5 32 C-5.14893617 14.85106383 -5.14893617 14.85106383 -7 6 C-5.02 5.67 -3.04 5.34 -1 5 C-0.67 3.35 -0.34 1.7 0 0 Z " fill="#575757" transform="translate(112,319)"/>
<path d="M0 0 C1 1 1 1 1.02734375 3.29296875 C0.99769531 4.24816406 0.96804687 5.20335937 0.9375 6.1875 C0.88621209 10.58686306 1.38880842 13.87132157 3 18 C3 19.32 3 20.64 3 22 C1.1875 23.0625 1.1875 23.0625 -1 24 C-5.07145804 22.64284732 -5.88784109 20.66107545 -8 17 C-9.50197231 12.11859001 -9.61279776 7.01347835 -8.125 2.125 C-6.04514888 -1.80360768 -3.88744645 -0.99678114 0 0 Z " fill="#4C4C4C" transform="translate(24,457)"/>
<path d="M0 0 C4.44403436 0.62402001 8.11274586 2.3477667 12.0625 4.375 C12.67416016 4.67921875 13.28582031 4.9834375 13.91601562 5.296875 C17.180424 6.94848918 20.1593562 8.69064868 23 11 C22.67 11.66 22.34 12.32 22 13 C20.68 12.67 19.36 12.34 18 12 C17.01 13.32 16.02 14.64 15 16 C10.68006869 14.33374078 6.61660024 12.32850762 2.5 10.21875 C0.03861782 9.01882619 -2.44603342 7.9851014 -5 7 C-1.25 3.125 -1.25 3.125 1 2 C0.67 1.34 0.34 0.68 0 0 Z " fill="#4C4C4C" transform="translate(461,89)"/>
<path d="M0 0 C3.06565052 1.46895754 4.86558974 2.81053352 7 5.4375 C7 6.0975 7 6.7575 7 7.4375 C7.66 7.4375 8.32 7.4375 9 7.4375 C9 8.0975 9 8.7575 9 9.4375 C9.66 9.4375 10.32 9.4375 11 9.4375 C11 12.10416667 11 14.77083333 11 17.4375 C7.6875 17.6875 7.6875 17.6875 4 17.4375 C2.0625 15.5625 2.0625 15.5625 1 13.4375 C1 12.7775 1 12.1175 1 11.4375 C0.34 11.4375 -0.32 11.4375 -1 11.4375 C-2.5078125 9.46875 -2.5078125 9.46875 -4.125 6.9375 C-4.66382813 6.1021875 -5.20265625 5.266875 -5.7578125 4.40625 C-6.16773438 3.7565625 -6.57765625 3.106875 -7 2.4375 C-3.375 -0.6328125 -3.375 -0.6328125 0 0 Z " fill="#4B4B4B" transform="translate(354,18.5625)"/>
<path d="M0 0 C3.12830756 1.45131349 6.25203426 2.91223157 9.375 4.375 C10.70917969 4.99375 10.70917969 4.99375 12.0703125 5.625 C12.92109375 6.02460938 13.771875 6.42421875 14.6484375 6.8359375 C15.43395996 7.20251465 16.21948242 7.5690918 17.02880859 7.94677734 C19 9 19 9 21 11 C19.68 11.33 18.36 11.66 17 12 C17 11.34 17 10.68 17 10 C16.01 10.495 16.01 10.495 15 11 C15.99 12.485 15.99 12.485 17 14 C16.01 14.495 16.01 14.495 15 15 C16.65 16.32 18.3 17.64 20 19 C15.08598561 18.37123832 11.10841353 16.27698169 6.75 14.0625 C5.65171875 13.52206055 5.65171875 13.52206055 4.53125 12.97070312 C-0.87328966 10.25342069 -0.87328966 10.25342069 -2 8 C-0.35 7.01 1.3 6.02 3 5 C2.2575 4.319375 2.2575 4.319375 1.5 3.625 C0 2 0 2 0 0 Z " fill="#616161" transform="translate(155,377)"/>
<path d="M0 0 C3.53086549 1.30610777 6.55718156 2.84884949 9.6875 4.9375 C10.45449219 5.44152344 11.22148437 5.94554687 12.01171875 6.46484375 C14 8 14 8 16 11 C14.8553125 10.6596875 14.8553125 10.6596875 13.6875 10.3125 C12.3571875 10.1578125 12.3571875 10.1578125 11 10 C9.1645201 11.33378575 9.1645201 11.33378575 8 13 C8.99 14.32 9.98 15.64 11 17 C9 16 7 15 5 14 C5 13.34 5 12.68 5 12 C4.360625 11.773125 3.72125 11.54625 3.0625 11.3125 C-1.13320261 9.51434174 -5.03900556 7.26095979 -9 5 C-6.9858023 3.99290115 -5.18096274 3.52871824 -3 3 C-2.01 2.67 -1.02 2.34 0 2 C0 1.34 0 0.68 0 0 Z " fill="#636363" transform="translate(340,9)"/>
<path d="M0 0 C0.99 0 1.98 0 3 0 C5 2 5 2 5 5 C4.01171875 6.796875 4.01171875 6.796875 2.6875 8.75 C0.31525066 12.38924615 -1.40290575 15.96523559 -3 20 C-4.25541557 16.23375329 -3.37061958 14.62811066 -2 11 C-3.98 11.99 -3.98 11.99 -6 13 C-6.33 12.34 -6.66 11.68 -7 11 C-7.99 11.99 -8.98 12.98 -10 14 C-9.53851564 9.07750013 -7.19609831 4.72262318 -4 1 C-3.01 1 -2.02 1 -1 1 C-0.67 0.67 -0.34 0.34 0 0 Z " fill="#606060" transform="translate(19,186)"/>
<path d="M0 0 C0.66 0.33 1.32 0.66 2 1 C1.01 2.32 0.02 3.64 -1 5 C-0.34 5 0.32 5 1 5 C1 4.34 1 3.68 1 3 C1.99 2.67 2.98 2.34 4 2 C4 2.66 4 3.32 4 4 C4.66 4 5.32 4 6 4 C6.33 4.99 6.66 5.98 7 7 C6.030625 7.61875 5.06125 8.2375 4.0625 8.875 C0.97164638 10.65678846 0.97164638 10.65678846 0 13 C-2.0625 13.625 -2.0625 13.625 -4 14 C-4.33 13.01 -4.66 12.02 -5 11 C-6.98 11.99 -8.96 12.98 -11 14 C-10.59102482 9.1009995 -8.60793633 7.3004017 -4.9375 4.1875 C-3.55884766 3.00220703 -3.55884766 3.00220703 -2.15234375 1.79296875 C-1.44207031 1.20128906 -0.73179688 0.60960937 0 0 Z " fill="#545454" transform="translate(27,175)"/>
<path d="M0 0 C3.05249101 -0.29350875 5.95506823 -0.41545701 9 0 C12.54895217 3.0939583 13.7510401 6.52456035 15 11 C12 13 12 13 9.0625 13 C4.89810627 11.64019797 4.01828112 9.82031784 2 6 C0.75 2.625 0.75 2.625 0 0 Z " fill="#3E3E3E" transform="translate(116,346)"/>
<path d="M0 0 C0.66 0.99 1.32 1.98 2 3 C0.625 4.5 0.625 4.5 -1 6 C-1.66 6 -2.32 6 -3 6 C-3 6.99 -3 7.98 -3 9 C-0.69 9.33 1.62 9.66 4 10 C4.66 8.68 5.32 7.36 6 6 C6.8638129 7.45264038 7.71580454 8.9123163 8.5625 10.375 C9.27599609 11.59316406 9.27599609 11.59316406 10.00390625 12.8359375 C10.49697266 13.90714844 10.49697266 13.90714844 11 15 C10.67 15.66 10.34 16.32 10 17 C8.68 16.67 7.36 16.34 6 16 C4.68776504 19.93670488 5.75703744 22.12488144 7 26 C4.18911889 23.4650336 2.36286905 20.58096754 0.375 17.375 C-1.57825665 14.00896249 -1.57825665 14.00896249 -4 11 C-4.44926708 7.04644974 -4.30871428 5.44377677 -2 2.125 C-1.34 1.42375 -0.68 0.7225 0 0 Z " fill="#5B5B5B" transform="translate(486,180)"/>
<path d="M0 0 C6.75 -0.125 6.75 -0.125 9 1 C9 1.66 9 2.32 9 3 C9.94875 3.28875 10.8975 3.5775 11.875 3.875 C15 5 15 5 17 7 C15.68 7.33 14.36 7.66 13 8 C12.67 7.01 12.34 6.02 12 5 C10.68 5.33 9.36 5.66 8 6 C8 8.46278801 8.85452863 9.85224119 10 12 C4.62694301 11.7357513 4.62694301 11.7357513 2 11 C0 8.4375 0 8.4375 -1 6 C-0.34 6 0.32 6 1 6 C1 5.34 1 4.68 1 4 C-0.65 4.66 -2.3 5.32 -4 6 C-3.67 5.01 -3.34 4.02 -3 3 C-2.34 3 -1.68 3 -1 3 C-0.67 2.01 -0.34 1.02 0 0 Z M5 7 C6 9 6 9 6 9 Z M9 7 C9.66 7.66 10.32 8.32 11 9 C10.34 9 9.68 9 9 9 C9 8.34 9 7.68 9 7 Z " fill="#545454" transform="translate(288,357)"/>
<path d="M0 0 C1.5 1.375 1.5 1.375 3 3 C3 3.66 3 4.32 3 5 C3.66 5 4.32 5 5 5 C6.06775224 6.96466413 7.06553465 8.96855359 8 11 C7.67 11.66 7.34 12.32 7 13 C6.01 13.33 5.02 13.66 4 14 C3.67 16.31 3.34 18.62 3 21 C0.70329796 18.70329796 -0.60277938 16.39692905 -2.1875 13.5625 C-2.73792969 12.59441406 -3.28835938 11.62632813 -3.85546875 10.62890625 C-5 8 -5 8 -4 5 C-2.35 4.67 -0.7 4.34 1 4 C0.34 3.67 -0.32 3.34 -1 3 C-0.67 2.01 -0.34 1.02 0 0 Z " fill="#5B5B5B" transform="translate(365,30)"/>
<path d="M0 0 C2.31 0 4.62 0 7 0 C4.97416392 1.52506761 2.94347249 3.04121579 0.89453125 4.53515625 C0.20746094 5.03917969 -0.47960937 5.54320313 -1.1875 6.0625 C-1.88230469 6.56910156 -2.57710937 7.07570313 -3.29296875 7.59765625 C-5.12330317 8.90724076 -5.12330317 8.90724076 -6 11 C-6.66 11 -7.32 11 -8 11 C-8.433125 11.928125 -8.433125 11.928125 -8.875 12.875 C-10 15 -10 15 -12 17 C-12 15.35 -12 13.7 -12 12 C-11.34 12 -10.68 12 -10 12 C-10 11.01 -10 10.02 -10 9 C-12.64 9.99 -15.28 10.98 -18 12 C-16.5682479 6.98886765 -14.01554307 5.05530451 -10 2 C-10 2.99 -10 3.98 -10 5 C-6.64566891 4.05066101 -3.30753495 3.10251165 0 2 C0 1.34 0 0.68 0 0 Z " fill="#666666" transform="translate(94,60)"/>
<path d="M0 0 C-0.46359512 4.72867022 -1.0799155 8.18142796 -4 12 C-4.99 12.33 -5.98 12.66 -7 13 C-7 11.68 -7 10.36 -7 9 C-7.66 9 -8.32 9 -9 9 C-9.33 9.66 -9.66 10.32 -10 11 C-10.92117061 7.39906035 -11.28640374 5.61372229 -9.6875 2.1875 C-6.64537464 -1.75599583 -4.60796923 -0.9015592 0 0 Z " fill="#4B4B4B" transform="translate(500,275)"/>
<path d="M0 0 C3.84235498 1.13524124 7.1258669 2.1258669 10 5 C10 6.32 10 7.64 10 9 C9.34 9 8.68 9 8 9 C8 9.66 8 10.32 8 11 C8.66 11.33 9.32 11.66 10 12 C8.35 12.33 6.7 12.66 5 13 C5 12.34 5 11.68 5 11 C4.38125 10.690625 3.7625 10.38125 3.125 10.0625 C1.75 9.375 0.375 8.6875 -1 8 C-1 7.34 -1 6.68 -1 6 C-1.66 6 -2.32 6 -3 6 C-2.625 4.0625 -2.625 4.0625 -2 2 C-1.34 1.67 -0.68 1.34 0 1 C0 0.67 0 0.34 0 0 Z " fill="#444444" transform="translate(223,28)"/>
<path d="M0 0 C0 0.99 0 1.98 0 3 C-0.66 3 -1.32 3 -2 3 C-2.0825 4.0725 -2.165 5.145 -2.25 6.25 C-3.05476902 10.2738451 -3.87729874 11.48169253 -7 14 C-7 13.01 -7 12.02 -7 11 C-9.49092811 9.75453595 -10.41080733 10.2232422 -13 11 C-12.49614177 6.59124045 -11.0886933 4.17449034 -8 1 C-4.61376211 -0.8170057 -3.70785988 -1.23595329 0 0 Z " fill="#444444" transform="translate(259,26)"/>
<path d="M0 0 C0.144375 0.639375 0.28875 1.27875 0.4375 1.9375 C0.81007181 3.97545146 0.81007181 3.97545146 2 5 C3.92638012 5.75243555 3.92638012 5.75243555 6 6 C6.66 5.34 7.32 4.68 8 4 C7.36843005 9.05255964 5.86540627 13.29593201 4 18 C3.67 17.01 3.34 16.02 3 15 C0.69 15 -1.62 15 -4 15 C-3.34728444 11.48294042 -2.48606976 8.10674923 -1.4375 4.6875 C-1.16808594 3.80449219 -0.89867187 2.92148437 -0.62109375 2.01171875 C-0.41613281 1.34785156 -0.21117187 0.68398438 0 0 Z " fill="#666666" transform="translate(497,260)"/>
<path d="M0 0 C0.66 0.33 1.32 0.66 2 1 C1.38125 1.495 0.7625 1.99 0.125 2.5 C-2.04049146 5.04763701 -2.3431711 5.92929034 -2.9375 9.0625 C-3.61042182 12.28291155 -3.78708408 12.81984038 -6.4375 15.0625 C-9 16 -9 16 -12 15 C-11.01 14.01 -10.02 13.02 -9 12 C-9.99 11.67 -10.98 11.34 -12 11 C-11.34 10.01 -10.68 9.02 -10 8 C-10.33 7.34 -10.66 6.68 -11 6 C-9.21385682 4.96953278 -7.42089982 3.95086764 -5.625 2.9375 C-4.62726563 2.36902344 -3.62953125 1.80054688 -2.6015625 1.21484375 C-1.74304688 0.81394531 -0.88453125 0.41304688 0 0 Z " fill="#525252" transform="translate(265,377)"/>
<path d="M0 0 C1.65 0.33 3.3 0.66 5 1 C4.67 3.31 4.34 5.62 4 8 C3.34 8 2.68 8 2 8 C1.67 9.65 1.34 11.3 1 13 C-3.75 12.125 -3.75 12.125 -6 11 C-6 8 -6 8 -4.125 6.0625 C-3.42375 5.381875 -2.7225 4.70125 -2 4 C-0.76487921 1.86690808 -0.76487921 1.86690808 0 0 Z " fill="#242424" transform="translate(489,178)"/>
<path d="M0 0 C-0.165 0.598125 -0.33 1.19625 -0.5 1.8125 C-1.1114124 4.11344336 -1.1114124 4.11344336 -1 7 C-2 8 -2 8 -4.3125 8.1875 C-7.0779203 7.9945637 -8.64045051 7.39825155 -11 6 C-11.1875 3.625 -11.1875 3.625 -11 1 C-6.8204355 -1.78637633 -4.85331323 -0.79562512 0 0 Z " fill="#3E3E3E" transform="translate(73,320)"/>
<path d="M0 0 C3.43956951 0.63754034 5.80168914 1.98659646 8.6875 3.9375 C9.47511719 4.46214844 10.26273438 4.98679687 11.07421875 5.52734375 C13 7 13 7 14 9 C13.443125 8.71125 12.88625 8.4225 12.3125 8.125 C9.91505355 6.9586747 7.48403061 5.9660119 5 5 C4.34 5.66 3.68 6.32 3 7 C1.140625 8.2421875 1.140625 8.2421875 -1 9 C-3.140625 8.3203125 -3.140625 8.3203125 -5.25 7.125 C-6.30960938 6.54105469 -6.30960938 6.54105469 -7.390625 5.9453125 C-7.92171875 5.63335938 -8.4528125 5.32140625 -9 5 C-6.53721199 3.768606 -4.7204945 3.92840804 -2 4 C-2 3.34 -2 2.68 -2 2 C-1.34 2 -0.68 2 0 2 C0 1.34 0 0.68 0 0 Z " fill="#727272" transform="translate(219,24)"/>
<path d="M0 0 C-0.66 0 -1.32 0 -2 0 C-0.31192092 4.23084903 -0.31192092 4.23084903 3 7 C-2.17578125 10.22265625 -2.17578125 10.22265625 -4 11 C-4.99 10.67 -5.98 10.34 -7 10 C-7 9.34 -7 8.68 -7 8 C-7.66 7.67 -8.32 7.34 -9 7 C-9.625 4.9375 -9.625 4.9375 -10 3 C-3.375 -1.125 -3.375 -1.125 0 0 Z " fill="#626262" transform="translate(462,309)"/>
<path d="M0 0 C0.45375 0.61875 0.9075 1.2375 1.375 1.875 C2.97108919 4.05919833 2.97108919 4.05919833 5 6 C5.125 9.625 5.125 9.625 5 13 C4.34 13 3.68 13 3 13 C2.67 14.32 2.34 15.64 2 17 C1.67 16.34 1.34 15.68 1 15 C1.33 14.34 1.66 13.68 2 13 C-0.39068734 11.89363605 -0.39068734 11.89363605 -3 11 C-3.99 11.495 -3.99 11.495 -5 12 C-3.41037341 7.96479403 -1.71767682 3.98188718 0 0 Z " fill="#585858" transform="translate(492,168)"/>
<path d="M0 0 C3.93673644 1.31224548 6.22719294 2.91910327 9 6 C8.34 7.32 7.68 8.64 7 10 C3 10 3 10 1.515625 8.6875 C0.34375 7.125 -0.828125 5.5625 -2 4 C-1.34 2.68 -0.68 1.36 0 0 Z " fill="#1E1E1E" transform="translate(55,418)"/>
<path d="M0 0 C1.32 0.66 2.64 1.32 4 2 C3.39301257 6.12751449 1.96189209 9.3321148 0 13 C-0.8971875 11.7934375 -0.8971875 11.7934375 -1.8125 10.5625 C-3.80947276 7.77672016 -3.80947276 7.77672016 -7 7 C-5.74797133 3.24391399 -4.36936427 2.85315035 -1 1 C-0.67 0.67 -0.34 0.34 0 0 Z " fill="#454545" transform="translate(56,379)"/>
<path d="M0 0 C1.21236328 0.01353516 1.21236328 0.01353516 2.44921875 0.02734375 C3.37154297 0.04474609 3.37154297 0.04474609 4.3125 0.0625 C4.3125 0.3925 4.3125 0.7225 4.3125 1.0625 C1.0125 1.3925 -2.2875 1.7225 -5.6875 2.0625 C-5.3575 3.7125 -5.0275 5.3625 -4.6875 7.0625 C-1.7175 7.3925 1.2525 7.7225 4.3125 8.0625 C4.3125 8.3925 4.3125 8.7225 4.3125 9.0625 C1.3425 9.0625 -1.6275 9.0625 -4.6875 9.0625 C-4.6875 9.7225 -4.6875 10.3825 -4.6875 11.0625 C-5.3475 11.0625 -6.0075 11.0625 -6.6875 11.0625 C-7.3475 10.0725 -8.0075 9.0825 -8.6875 8.0625 C-11.27130177 7.81219023 -11.27130177 7.81219023 -13.6875 8.0625 C-12.29165208 4.68920085 -10.76384389 3.02017338 -7.6875 1.0625 C-4.80538698 0.10179566 -2.98899956 -0.04331883 0 0 Z " fill="#8C8C8C" transform="translate(31.6875,448.9375)"/>
<path d="M0 0 C4.33333333 4.33333333 8.66666667 8.66666667 13 13 C9.06764531 13 7.97035951 11.45054659 5 9 C4.01 8.67 3.02 8.34 2 8 C1.01 8.495 1.01 8.495 0 9 C0 9.99 0 10.98 0 12 C-0.66 12 -1.32 12 -2 12 C-3.98 8.535 -3.98 8.535 -6 5 C-2.535 4.505 -2.535 4.505 1 4 C0.67 2.68 0.34 1.36 0 0 Z " fill="#818181" transform="translate(129,353)"/>
<path d="M0 0 C0.33 0.66 0.66 1.32 1 2 C3.31 1.34 5.62 0.68 8 0 C8.8125 1.6875 8.8125 1.6875 9 4 C6.5625 6.75 6.5625 6.75 4 9 C4 8.34 4 7.68 4 7 C-0.10223585 5.98459888 -0.10223585 5.98459888 -4 7 C-2.92598892 4.08482708 -2.22189824 2.22189824 0 0 Z " fill="#5C5C5C" transform="translate(41,117)"/>
<path d="M0 0 C1.32 0.33 2.64 0.66 4 1 C4.98120464 4.05263664 4.98120464 5.94736336 4 9 C2.35 9.33 0.7 9.66 -1 10 C-2.4606285 7.35261084 -3 6.10551666 -3 3 C-2.34 3 -1.68 3 -1 3 C-0.67 2.01 -0.34 1.02 0 0 Z " fill="#393939" transform="translate(463,306)"/>
<path d="M0 0 C1.9375 0.8125 1.9375 0.8125 4.9375 2.8125 C4.6075 3.4725 4.2775 4.1325 3.9375 4.8125 C2.6175 4.4825 1.2975 4.1525 -0.0625 3.8125 C-1.0525 5.1325 -2.0425 6.4525 -3.0625 7.8125 C-6.65641114 6.47761872 -9.81740696 4.85227277 -13.0625 2.8125 C-11.0625 1.8125 -11.0625 1.8125 -8.6875 2.4375 C-5.9991402 3.1325482 -5.9991402 3.1325482 -4 1.3125 C-2.0625 -0.1875 -2.0625 -0.1875 0 0 Z " fill="#7A7A7A" transform="translate(479.0625,97.1875)"/>
<path d="M0 0 C1.65 0 3.3 0 5 0 C6.20508082 3.61524247 5.95808288 5.4071892 5 9 C4.01 9 3.02 9 2 9 C1.67 7.68 1.34 6.36 1 5 C0.01 5 -0.98 5 -2 5 C-2.66 4.67 -3.32 4.34 -4 4 C-2.68 3.34 -1.36 2.68 0 2 C0 1.34 0 0.68 0 0 Z " fill="#616161" transform="translate(279,366)"/>
<path d="M0 0 C-0.66 1.32 -1.32 2.64 -2 4 C-2.33 4 -2.66 4 -3 4 C-3.33 5.65 -3.66 7.3 -4 9 C-4.66 9 -5.32 9 -6 9 C-6 8.01 -6 7.02 -6 6 C-7.32 5.67 -8.64 5.34 -10 5 C-9.375 3.125 -9.375 3.125 -8 1 C-2.66666667 -1.33333333 -2.66666667 -1.33333333 0 0 Z " fill="#252525" transform="translate(86,69)"/>
<path d="M0 0 C1.32 0.66 2.64 1.32 4 2 C4 3.32 4 4.64 4 6 C3.34 6 2.68 6 2 6 C2 6.66 2 7.32 2 8 C2.66 8.33 3.32 8.66 4 9 C2.35 9.33 0.7 9.66 -1 10 C-2.25 3.375 -2.25 3.375 0 0 Z " fill="#313131" transform="translate(229,31)"/>
<path d="M0 0 C0.66 0.33 1.32 0.66 2 1 C0.79618552 3.49361571 -0.45428722 5.68143083 -2 8 C-4.625 8.6875 -4.625 8.6875 -7 9 C-6.5047783 5.33535945 -5.9791794 3.29167646 -3 1 C-2.01 0.67 -1.02 0.34 0 0 Z " fill="#535353" transform="translate(49,110)"/>
<path d="M0 0 C1.25640898 2.51281795 1.20872719 4.21697081 1 7 C0.34 7.66 -0.32 8.32 -1 9 C-1.27787668 11.42597951 -1.27787668 11.42597951 -1.1953125 14.2265625 C-1.18886719 15.2578125 -1.18242188 16.2890625 -1.17578125 17.3515625 C-1.15902344 18.43179688 -1.14226563 19.51203125 -1.125 20.625 C-1.11597656 21.71296875 -1.10695312 22.8009375 -1.09765625 23.921875 C-1.07403409 26.61480152 -1.04109556 29.30729255 -1 32 C-3.95035618 29.04964382 -3.29213792 26.43164313 -3.32226562 22.39453125 C-3.31904297 21.39808594 -3.31582031 20.40164062 -3.3125 19.375 C-3.32861328 18.40175781 -3.34472656 17.42851562 -3.36132812 16.42578125 C-3.36549248 10.23755563 -2.54295563 5.64952148 0 0 Z " fill="#BABABA" transform="translate(34,129)"/>
<path d="M0 0 C0.66 0.33 1.32 0.66 2 1 C1.34837891 1.86238281 1.34837891 1.86238281 0.68359375 2.7421875 C-0.38286965 4.17238667 -1.43439779 5.61394888 -2.46484375 7.0703125 C-2.95082031 7.74835937 -3.43679687 8.42640625 -3.9375 9.125 C-4.42089844 9.80820312 -4.90429688 10.49140625 -5.40234375 11.1953125 C-7.12516454 13.1413839 -8.62120239 14.00326839 -11 15 C-9.58319756 10.67953102 -7.46236215 7.99538801 -4.375 4.6875 C-3.55773437 3.80449219 -2.74046875 2.92148437 -1.8984375 2.01171875 C-0.95871094 1.01591797 -0.95871094 1.01591797 0 0 Z " fill="#9B9B9B" transform="translate(156,31)"/>
<path d="M0 0 C0.99 0 1.98 0 3 0 C3 0.99 3 1.98 3 3 C3.99 3 4.98 3 6 3 C6.33 4.98 6.66 6.96 7 9 C5.02 9 3.04 9 1 9 C0.06576355 5.98968256 -0.04449911 5.13349732 1 2 C0.67 1.34 0.34 0.68 0 0 Z " fill="#202020" transform="translate(359,27)"/>
<path d="M0 0 C2 2 2 2 2.125 4.625 C2.08375 5.40875 2.0425 6.1925 2 7 C0.02 7.99 0.02 7.99 -2 9 C-2 7.68 -2 6.36 -2 5 C-2.66 5 -3.32 5 -4 5 C-4.33 5.66 -4.66 6.32 -5 7 C-5.33 6.01 -5.66 5.02 -6 4 C-4.02 2.68 -2.04 1.36 0 0 Z " fill="#3A3A3A" transform="translate(495,279)"/>
<path d="M0 0 C0.66 0 1.32 0 2 0 C2 0.66 2 1.32 2 2 C3.65 2 5.3 2 7 2 C8 5 8 5 8 8 C8.31421071 10.00309329 8.6451046 12.00371336 9 14 C6.14015453 11.48367951 4.58531178 8.66114447 2.8125 5.3125 C2.28269531 4.31863281 1.75289063 3.32476562 1.20703125 2.30078125 C0.60955078 1.16189453 0.60955078 1.16189453 0 0 Z " fill="#898989" transform="translate(484,192)"/>
<path d="M0 0 C0.598125 0.20625 1.19625 0.4125 1.8125 0.625 C1.4825 2.935 1.1525 5.245 0.8125 7.625 C-1.80937494 6.57625002 -2.98121361 5.97568687 -4.4375 3.5 C-4.685 2.88125 -4.9325 2.2625 -5.1875 1.625 C-2.1875 -0.375 -2.1875 -0.375 0 0 Z " fill="#212121" transform="translate(133.1875,360.375)"/>
<path d="M0 0 C2.875 0.1875 2.875 0.1875 6 1 C7.4375 3.4375 7.4375 3.4375 8 6 C7.67 6.66 7.34 7.32 7 8 C6.01 8 5.02 8 4 8 C0 3.77142857 0 3.77142857 0 0 Z M3 3 C3 3.66 3 4.32 3 5 C3.66 4.67 4.32 4.34 5 4 C4.34 3.67 3.68 3.34 3 3 Z " fill="#1D1D1D" transform="translate(294,361)"/>
<path d="M0 0 C0 3.9919694 -1.11957103 6.49851158 -3 10 C-5.6875 10.9375 -5.6875 10.9375 -8 11 C-8.33 10.34 -8.66 9.68 -9 9 C-7.68 9 -6.36 9 -5 9 C-5.33 7.35 -5.66 5.7 -6 4 C-5.34 3.67 -4.68 3.34 -4 3 C-3.34 3.33 -2.68 3.66 -2 4 C-2 3.01 -2 2.02 -2 1 C-1.34 0.67 -0.68 0.34 0 0 Z " fill="#868686" transform="translate(248,45)"/>
<path d="M0 0 C-0.66 1.65 -1.32 3.3 -2 5 C-2.66 5 -3.32 5 -4 5 C-4 5.66 -4 6.32 -4 7 C-4.99 6.67 -5.98 6.34 -7 6 C-7 4.35 -7 2.7 -7 1 C-4.53721199 -0.231394 -2.7204945 -0.07159196 0 0 Z " fill="#1D1D1D" transform="translate(33,450)"/>
<path d="M0 0 C2.31 0 4.62 0 7 0 C3.21087559 2.99972349 -0.88831832 5.47510809 -5 8 C-5.66 6.68 -6.32 5.36 -7 4 C-6.401875 3.855625 -5.80375 3.71125 -5.1875 3.5625 C-3.43849596 3.1127561 -1.71322977 2.57107659 0 2 C0 1.34 0 0.68 0 0 Z " fill="#7D7D7D" transform="translate(94,60)"/>
<path d="M0 0 C1.32 0.66 2.64 1.32 4 2 C3.34 3.32 2.68 4.64 2 6 C0.68 6 -0.64 6 -2 6 C-1.125 1.125 -1.125 1.125 0 0 Z " fill="#1F1F1F" transform="translate(24,474)"/>
<path d="M0 0 C1.32 0.33 2.64 0.66 4 1 C3.34 1 2.68 1 2 1 C2 1.66 2 2.32 2 3 C2.66 3 3.32 3 4 3 C4 3.66 4 4.32 4 5 C3.34 5 2.68 5 2 5 C2 5.99 2 6.98 2 8 C1.34 8 0.68 8 0 8 C0 7.34 0 6.68 0 6 C-0.66 5.67 -1.32 5.34 -2 5 C-1.34 3.35 -0.68 1.7 0 0 Z " fill="#353535" transform="translate(418,89)"/>
<path d="M0 0 C3.5786304 1.65167557 6.74820188 3.78286492 10 6 C9.67 7.65 9.34 9.3 9 11 C8.443125 10.29875 7.88625 9.5975 7.3125 8.875 C4.90875268 5.88655739 2.46189568 2.94059762 0 0 Z " fill="#979797" transform="translate(97,384)"/>
<path d="M0 0 C1.32 0.33 2.64 0.66 4 1 C4 1.66 4 2.32 4 3 C4.94875 3.28875 5.8975 3.5775 6.875 3.875 C10 5 10 5 12 7 C10.68 7.33 9.36 7.66 8 8 C7.67 7.01 7.34 6.02 7 5 C5.68 5.33 4.36 5.66 3 6 C2.67 5.34 2.34 4.68 2 4 C2.33 3.34 2.66 2.68 3 2 C2.01 1.67 1.02 1.34 0 1 C0 0.67 0 0.34 0 0 Z " fill="#909090" transform="translate(293,357)"/>
<path d="M0 0 C0.66 0.33 1.32 0.66 2 1 C1.67 1.66 1.34 2.32 1 3 C1.99 3.33 2.98 3.66 4 4 C3.67 4.99 3.34 5.98 3 7 C1.02 7.33 -0.96 7.66 -3 8 C-2.67 7.34 -2.34 6.68 -2 6 C-1.34 6 -0.68 6 0 6 C-0.2784375 4.7934375 -0.2784375 4.7934375 -0.5625 3.5625 C-0.706875 2.716875 -0.85125 1.87125 -1 1 C-0.67 0.67 -0.34 0.34 0 0 Z " fill="#212121" transform="translate(452,313)"/>
<path d="M0 0 C0.66 0 1.32 0 2 0 C2.6875 1.8125 2.6875 1.8125 3 4 C1.5625 5.75 1.5625 5.75 0 7 C-0.99 6.34 -1.98 5.68 -3 5 C-1.125 1.125 -1.125 1.125 0 0 Z " fill="#1E1E1E" transform="translate(479,100)"/>
<path d="M0 0 C-3.70416126 2.37590142 -6.92984573 2.20500286 -11.25 2.125 C-12.51328125 2.10695313 -13.7765625 2.08890625 -15.078125 2.0703125 C-16.04234375 2.04710937 -17.0065625 2.02390625 -18 2 C-18 1.67 -18 1.34 -18 1 C-15.75152519 0.63627613 -13.50113812 0.28435904 -11.25 -0.0625 C-9.99703125 -0.25972656 -8.7440625 -0.45695312 -7.453125 -0.66015625 C-4.49983411 -0.95080818 -2.7397586 -0.98935727 0 0 Z " fill="#B9B9B9" transform="translate(234,392)"/>
<path d="M0 0 C0.66 0.99 1.32 1.98 2 3 C0.625 4.5 0.625 4.5 -1 6 C-1.66 6 -2.32 6 -3 6 C-2.67 7.98 -2.34 9.96 -2 12 C-2.66 11.67 -3.32 11.34 -4 11 C-4.36630156 7.06225823 -4.30233203 5.43460229 -2 2.125 C-1.34 1.42375 -0.68 0.7225 0 0 Z " fill="#9C9C9C" transform="translate(486,180)"/>
<path d="M0 0 C0.99 0.33 1.98 0.66 3 1 C3.33 1.99 3.66 2.98 4 4 C3.34 4 2.68 4 2 4 C2 4.99 2 5.98 2 7 C-0.475 6.01 -0.475 6.01 -3 5 C-2.01 3.35 -1.02 1.7 0 0 Z " fill="#1D1D1D" transform="translate(244,42)"/>
<path d="M0 0 C1.32 0.33 2.64 0.66 4 1 C4 1.66 4 2.32 4 3 C2.34997172 4.35386936 0.6825613 5.68678142 -1 7 C-1.33 7.66 -1.66 8.32 -2 9 C-2.66 8.67 -3.32 8.34 -4 8 C-3.67 6.68 -3.34 5.36 -3 4 C-2.34 4 -1.68 4 -1 4 C-0.67 2.68 -0.34 1.36 0 0 Z " fill="#818181" transform="translate(260,25)"/>
<path d="M0 0 C0.66 0.33 1.32 0.66 2 1 C0.92807816 2.3218362 -0.15802695 3.63217927 -1.25 4.9375 C-1.85328125 5.66839844 -2.4565625 6.39929688 -3.078125 7.15234375 C-5.10741134 9.10326334 -6.254407 9.61731779 -9 10 C-7.61811547 6.78956118 -6.07578097 4.95063635 -3.375 2.75 C-2.74335938 2.22921875 -2.11171875 1.7084375 -1.4609375 1.171875 C-0.73777344 0.59179688 -0.73777344 0.59179688 0 0 Z " fill="#A7A7A7" transform="translate(261,17)"/>
<path d="M0 0 C0.33 0 0.66 0 1 0 C1.13277344 0.60328125 1.26554687 1.2065625 1.40234375 1.828125 C1.66724609 3.02695312 1.66724609 3.02695312 1.9375 4.25 C2.11152344 5.03890625 2.28554688 5.8278125 2.46484375 6.640625 C2.947556 8.76878703 3.46163178 10.88532842 4 13 C2.68 12.67 1.36 12.34 0 12 C0 8.04 0 4.08 0 0 Z " fill="#9A9A9A" transform="translate(47,290)"/>
<path d="M0 0 C-1.12073862 0.83905565 -2.24674547 1.67107831 -3.375 2.5 C-4.00148438 2.9640625 -4.62796875 3.428125 -5.2734375 3.90625 C-7 5 -7 5 -9 5 C-8.875 3.125 -8.875 3.125 -8 1 C-2.71910112 -1.35955056 -2.71910112 -1.35955056 0 0 Z " fill="#898989" transform="translate(476,309)"/>
<path d="M0 0 C0.598125 0.165 1.19625 0.33 1.8125 0.5 C4.11344336 1.1114124 4.11344336 1.1114124 7 1 C4.69 2.65 2.38 4.3 0 6 C-0.66 5.67 -1.32 5.34 -2 5 C-1.34 3.35 -0.68 1.7 0 0 Z " fill="#929292" transform="translate(269,380)"/>
<path d="M0 0 C1.65 0.99 3.3 1.98 5 3 C5.33 2.01 5.66 1.02 6 0 C6.33 2.31 6.66 4.62 7 7 C6.34 7 5.68 7 5 7 C5 6.34 5 5.68 5 5 C4.360625 4.731875 3.72125 4.46375 3.0625 4.1875 C1 3 1 3 0 0 Z " fill="#979797" transform="translate(129,365)"/>
<path d="M0 0 C0.66 0.33 1.32 0.66 2 1 C2 2.32 2 3.64 2 5 C0.35 4.67 -1.3 4.34 -3 4 C-3 4.66 -3 5.32 -3 6 C-3.66 6 -4.32 6 -5 6 C-3.63016497 2.83884224 -3.0109362 2.0072908 0 0 Z " fill="#222222" transform="translate(31,174)"/>
<path d="M0 0 C2.64 0 5.28 0 8 0 C7.360625 0.268125 6.72125 0.53625 6.0625 0.8125 C3.66868314 1.88667752 3.66868314 1.88667752 3 5 C1.5 3.625 1.5 3.625 0 2 C0 1.34 0 0.68 0 0 Z " fill="#202020" transform="translate(456,90)"/>
<path d="M0 0 C-0.99 1.485 -0.99 1.485 -2 3 C-4.1640625 3.29296875 -4.1640625 3.29296875 -6.625 3.1875 C-7.44226563 3.16042969 -8.25953125 3.13335937 -9.1015625 3.10546875 C-9.72804688 3.07066406 -10.35453125 3.03585937 -11 3 C-7.72430636 -0.27569364 -4.48909309 -0.12469703 0 0 Z " fill="#ACACAC" transform="translate(298,2)"/>
<path d="M0 0 C0.66 0.33 1.32 0.66 2 1 C0.68 2.32 -0.64 3.64 -2 5 C-2.99 4.34 -3.98 3.68 -5 3 C-2.625 1.4375 -2.625 1.4375 0 0 Z " fill="#848484" transform="translate(265,377)"/>
</svg>
